<?xml version="1.0" encoding="UTF-8"?>
<svg version="1.1" xmlns="http://www.w3.org/2000/svg" width="1320" height="1000">
<path d="M0 0 C435.6 0 871.2 0 1320 0 C1320 330 1320 660 1320 1000 C884.4 1000 448.8 1000 0 1000 C0 670 0 340 0 0 Z " fill="#FEFEFE" transform="translate(0,0)"/>
<path d="M0 0 C0.79447373 -0.00438225 1.58894746 -0.00876451 2.40749615 -0.01327956 C5.08442584 -0.02669334 7.76132259 -0.03285217 10.4382782 -0.03897095 C12.35161997 -0.04686982 14.26496025 -0.05513863 16.17829895 -0.06375122 C22.47417269 -0.08999391 28.77005317 -0.10528005 35.06596375 -0.11953735 C37.23088778 -0.12489591 39.39581176 -0.13027341 41.5607357 -0.13566971 C50.5637889 -0.15730078 59.56684029 -0.17603891 68.56991291 -0.1872921 C81.48561131 -0.20354041 94.40100929 -0.2367371 107.31659442 -0.29369295 C116.39094786 -0.33234962 125.4652208 -0.35191966 134.53965443 -0.35721266 C139.9630586 -0.36087168 145.38614252 -0.37295152 150.80945778 -0.4053154 C155.91077029 -0.43532115 161.01156752 -0.44173463 166.11294937 -0.42993164 C167.98627451 -0.42971028 169.85962305 -0.43806646 171.73286629 -0.45558548 C174.28900681 -0.47819176 176.84326529 -0.47002305 179.39941406 -0.45410156 C180.14222053 -0.46798365 180.885027 -0.48186574 181.65034276 -0.49616849 C185.49783729 -0.43704577 187.21938589 0.01794847 190.26460552 2.44190025 C193.15333686 6.12760027 194.63843365 8.72615402 194.6474514 13.43997002 C194.65390029 14.29418254 194.66034919 15.14839506 194.6669935 16.02849281 C194.66234769 17.42896376 194.66234769 17.42896376 194.65760803 18.85772705 C194.66213915 19.85329813 194.66667026 20.84886921 194.67133868 21.87460911 C194.68402803 25.22019433 194.68235938 28.5656177 194.68070984 31.91122437 C194.68669223 34.30599172 194.6934971 36.70075715 194.70106506 39.09552002 C194.71692198 44.93104891 194.7231747 50.76652846 194.72428982 56.60207783 C194.72524017 61.34545362 194.72934978 66.08881608 194.73569107 70.83218765 C194.7533039 84.28052478 194.76252985 97.72882998 194.76103012 111.17717873 C194.76095021 111.90216769 194.7608703 112.62715666 194.76078796 113.37411499 C194.7607062 114.09998913 194.76062444 114.82586326 194.7605402 115.57373358 C194.75972723 127.33855905 194.77886745 139.10325652 194.8070647 150.86804496 C194.83578898 162.94804226 194.84960525 175.02797713 194.84787714 187.10800946 C194.84721309 193.89005318 194.85271186 200.67196271 194.87423325 207.45397568 C194.8935629 213.83156689 194.89377604 220.20887429 194.87919998 226.58647537 C194.87710428 228.92862104 194.88185784 231.27078424 194.8939209 233.61289978 C194.90931103 236.80763788 194.90010578 240.00138975 194.88465881 243.19610596 C194.89494594 244.12529181 194.90523307 245.05447767 194.91583192 246.01182067 C194.8451792 252.61364986 193.25270461 256.1466981 188.62845516 261.00467014 C185.34746176 262.68927994 182.18099129 262.57085264 178.57781982 262.5415802 C177.38967128 262.54965851 177.38967128 262.54965851 176.17751974 262.55790001 C173.52046658 262.57221986 170.86390879 262.56506604 168.20683289 262.55795288 C166.30304564 262.56365435 164.39926181 262.57061774 162.4954834 262.57875061 C157.32194669 262.59672186 152.14857922 262.59550617 146.97502065 262.58980823 C142.65826358 262.58672209 138.3415393 262.59280242 134.02478689 262.59884697 C123.8422772 262.61290364 113.65985138 262.61132143 103.4773407 262.59994507 C92.96743561 262.58846251 82.45778565 262.60253931 71.94791418 262.62934154 C62.92870346 262.65148238 53.90957291 262.65813957 44.89033693 262.65226513 C39.50168942 262.64889051 34.11320547 262.65134417 28.72458076 262.66851616 C23.65773175 262.68395742 18.59126132 262.68006105 13.52442741 262.66121101 C11.66402129 262.65751731 9.80358728 262.66065626 7.94320679 262.6710968 C5.40487493 262.68425526 2.86780593 262.67280568 0.32952881 262.65510559 C-0.40802247 262.6647106 -1.14557376 262.6743156 -1.90547508 262.68421167 C-5.42241623 262.63369515 -7.46826583 262.24172014 -10.48102665 260.37257481 C-13.67260406 257.04623962 -14.8578402 254.42195104 -14.86987972 249.82097816 C-14.87694531 248.95631546 -14.88401091 248.09165275 -14.89129061 247.20078814 C-14.88887552 246.255468 -14.88646044 245.31014785 -14.88397217 244.33618164 C-14.88920885 243.3283599 -14.89444553 242.32053817 -14.89984089 241.28217638 C-14.91487816 237.89513954 -14.91554687 234.50825327 -14.91621399 231.1211853 C-14.92383291 228.6968612 -14.93225994 226.27253953 -14.94143677 223.84822083 C-14.96341374 217.25528726 -14.97220649 210.66238945 -14.97726321 204.06942797 C-14.98052057 199.95263598 -14.98704323 195.83585333 -14.9942646 191.71906662 C-15.01382866 180.31999576 -15.03023435 168.92093359 -15.03314114 157.52184486 C-15.03332871 156.79249474 -15.03351628 156.06314462 -15.03370953 155.31169298 C-15.03407578 153.83314125 -15.03443948 152.35458952 -15.03480064 150.87603779 C-15.03498345 150.14208784 -15.03516626 149.40813788 -15.03535461 148.65194702 C-15.03553516 147.91710104 -15.03571571 147.18225506 -15.03590173 146.42514102 C-15.0394443 134.51479259 -15.06647261 122.60462486 -15.1038525 110.69433911 C-15.14192601 98.46517961 -15.16129854 86.2361098 -15.16160065 74.0068897 C-15.16218539 67.14097356 -15.17068811 60.27527305 -15.19959831 53.40941238 C-15.22665949 46.95302626 -15.22802518 40.49695494 -15.21194267 34.04052925 C-15.21012235 31.66935229 -15.21687113 29.29815116 -15.23276138 26.92702675 C-15.25311699 23.69270261 -15.24273077 20.45988963 -15.22454834 17.22558594 C-15.23774831 16.28472724 -15.25094828 15.34386853 -15.26454824 14.37449896 C-15.20823591 9.99640927 -15.00226885 7.0669385 -12.19639683 3.58691978 C-8.16550638 -0.20466532 -5.29960023 0.00351957 0 0 Z " fill="#B39251" transform="translate(212.6098175048828,368.8460998535156)"/>
<path d="M0 0 C1.093125 0.598125 2.18625 1.19625 3.3125 1.8125 C13.959581 10.47872872 18.2034377 23.31733409 19.77294922 36.515625 C20.19300482 41.11184627 20.32832479 45.69883489 20.375 50.3125 C20.38893799 51.21395752 20.40287598 52.11541504 20.41723633 53.04418945 C20.41103271 53.89198975 20.4048291 54.73979004 20.3984375 55.61328125 C20.39505371 56.36391846 20.39166992 57.11455566 20.38818359 57.88793945 C19.85621869 60.78229694 19.20205299 62.0152875 17 64 C14.32045125 64.4062245 12.0549583 64.56143783 9.375 64.53125 C8.63169434 64.5350769 7.88838867 64.53890381 7.12255859 64.54284668 C5.55239506 64.54556636 3.98218627 64.538201 2.41210938 64.52148438 C0.00808756 64.50007203 -2.39294618 64.52128034 -4.796875 64.546875 C-6.32292327 64.54423173 -7.84896967 64.53910676 -9.375 64.53125 C-10.09381348 64.53934692 -10.81262695 64.54744385 -11.55322266 64.55578613 C-14.75320811 64.49563748 -16.54189369 64.41960082 -18.94897461 62.21484375 C-20.58293713 58.77156663 -20.49579682 55.24173093 -20.5625 51.5 C-20.40348632 44.84696821 -20.40348632 44.84696821 -23 39 C-29.08818535 35.97503967 -35.54241726 36.67097816 -42.1875 36.6875 C-43.46431641 36.67138672 -44.74113281 36.65527344 -46.05664062 36.63867188 C-53.24219037 36.6349775 -60.44503454 36.69716372 -67 40 C-68.9451 42.91765 -69.45276317 44.62537285 -70 48 C-69.46890625 47.55527344 -68.9378125 47.11054688 -68.390625 46.65234375 C-67.68421875 46.08644531 -66.9778125 45.52054687 -66.25 44.9375 C-65.55390625 44.36902344 -64.8578125 43.80054688 -64.140625 43.21484375 C-62 42 -62 42 -59.734375 42.31640625 C-59.16203125 42.54199219 -58.5896875 42.76757812 -58 43 C-58.85464844 43.59167969 -59.70929688 44.18335938 -60.58984375 44.79296875 C-61.70625728 45.59040699 -62.82211392 46.38862529 -63.9375 47.1875 C-64.50146484 47.57486328 -65.06542969 47.96222656 -65.64648438 48.36132812 C-69.08128388 50.84434304 -69.08128388 50.84434304 -70.67016602 54.65356445 C-70.77901123 55.42788818 -70.88785645 56.20221191 -71 57 C-67.68653366 54.52212276 -64.37439041 52.04248311 -61.0625 49.5625 C-60.11697266 48.85544922 -59.17144531 48.14839844 -58.19726562 47.41992188 C-57.29814453 46.74638672 -56.39902344 46.07285156 -55.47265625 45.37890625 C-54.64000244 44.7557251 -53.80734863 44.13254395 -52.94946289 43.49047852 C-51.101957 42.14604229 -51.101957 42.14604229 -50 41 C-48.33382885 40.95936168 -46.66611905 40.957279 -45 41 C-48.64973594 44.95627544 -52.87302268 48.0082096 -57.1875 51.1875 C-58.63978951 52.26369354 -60.09163644 53.34048469 -61.54296875 54.41796875 C-62.18258545 54.89000732 -62.82220215 55.3620459 -63.48120117 55.84838867 C-64.96318847 56.91778162 -64.96318847 56.91778162 -66 58 C-67.66617115 58.04063832 -69.33388095 58.042721 -71 58 C-69.5127548 64.17020344 -69.5127548 64.17020344 -65.6875 69 C-62.64926116 70.13050747 -60.24686639 70.70483033 -57 71 C-55.80310547 71.27070313 -55.80310547 71.27070313 -54.58203125 71.546875 C-48.6852829 72.3602196 -45.07762707 71.30658113 -40.2890625 67.87890625 C-36.30415436 64.81982879 -32.4618355 61.60156513 -28.68896484 58.28515625 C-27 57 -27 57 -25 57 C-25.82299802 61.72111276 -28.75099389 63.53736235 -32.4375 66.25 C-33.3356543 66.93835938 -33.3356543 66.93835938 -34.25195312 67.640625 C-38.71612258 71 -38.71612258 71 -41 71 C-41 71.66 -41 72.32 -41 73 C-35.47041001 71.84800209 -32.05975485 69.82313856 -27.69921875 66.2421875 C-26 65 -26 65 -24 65 C-24.38597015 67.79828356 -24.80136573 68.8205884 -26.9375 70.75 C-29 72 -29 72 -31 72 C-31 72.66 -31 73.32 -31 74 C-26.14050808 72.84112126 -26.14050808 72.84112126 -21.875 70.375 C-19.4721612 68.61291822 -17.91020075 68.75748327 -15 69 C-18.75 72.875 -18.75 72.875 -21 74 C-15.55849445 73.57321525 -13.1675681 72.37910927 -9 69 C-6.6875 69.25 -6.6875 69.25 -5 70 C-6.98 71.65 -8.96 73.3 -11 75 C-7.95086772 76.01111093 -7.95086772 76.01111093 -5 75 C-5 75.99 -5 76.98 -5 78 C-4.45472656 78.13535156 -3.90945313 78.27070313 -3.34765625 78.41015625 C6.01273267 81.08226728 12.70741668 86.38088876 17.78515625 94.6796875 C22.58677698 103.8506287 23.14471093 113.51655236 23.203125 123.69921875 C23.20882507 124.4967305 23.21452515 125.29424225 23.22039795 126.11592102 C23.22977317 127.7923554 23.23635182 129.46880758 23.24023438 131.14526367 C23.24991065 133.66423955 23.28099366 136.18238755 23.3125 138.70117188 C23.42692808 156.14898547 21.18462597 173.86233078 8.41796875 186.87890625 C-5.6022983 199.17778349 -27.38744013 198.59029281 -44.9375 198.3125 C-46.82095351 198.30096102 -48.7044187 198.29119015 -50.58789062 198.28320312 C-83.80582437 198.06716932 -83.80582437 198.06716932 -96.96875 187.07421875 C-109.67072443 174.10354871 -112.1235185 157.3880541 -112.3125 140.0625 C-112.33022461 139.05485596 -112.34794922 138.04721191 -112.36621094 137.0090332 C-112.35686826 127.72474423 -112.35686826 127.72474423 -109 124 C-107.08117507 123.2519835 -105.15577285 122.51314394 -103.19140625 121.89453125 C-99.93133765 120.56377241 -97.50093802 118.40164043 -94.859375 116.109375 C-93 115 -93 115 -89 116 C-91.31 117.98 -93.62 119.96 -96 122 C-93.28572109 122.41125438 -91.55016549 122.35393578 -89.21484375 120.8515625 C-88.00737743 119.92353106 -86.81749223 118.97206931 -85.6484375 117.99609375 C-85.10445313 117.66738281 -84.56046875 117.33867187 -84 117 C-82.515 117.495 -82.515 117.495 -81 118 C-82.32 119.32 -83.64 120.64 -85 122 C-79.98464948 121.67039784 -79.98464948 121.67039784 -76 119 C-73.875 119.375 -73.875 119.375 -72 120 C-72.66 121.32 -73.32 122.64 -74 124 C-71.41895019 123.53909825 -70.06556549 123.05327196 -68 121.375 C-67.34 120.92125 -66.68 120.4675 -66 120 C-63.875 120.4140625 -63.875 120.4140625 -62 121 C-63.28627711 122.17260611 -64.57919783 123.3379283 -65.875 124.5 C-66.59429687 125.1496875 -67.31359375 125.799375 -68.0546875 126.46875 C-70 128 -70 128 -72 128 C-71.34 128.99 -70.68 129.98 -70 131 C-69.03578125 130.26652344 -68.0715625 129.53304687 -67.078125 128.77734375 C-65.80257809 127.83006259 -64.52650897 126.88348433 -63.25 125.9375 C-62.61578125 125.45216797 -61.9815625 124.96683594 -61.328125 124.46679688 C-60.709375 124.01240234 -60.090625 123.55800781 -59.453125 123.08984375 C-58.88754883 122.66566162 -58.32197266 122.24147949 -57.73925781 121.80444336 C-55.47054516 120.75511599 -54.30549097 121.18512819 -52 122 C-52.50974365 122.38857178 -53.0194873 122.77714355 -53.54467773 123.17749023 C-55.84287298 124.93005757 -58.1401969 126.68376342 -60.4375 128.4375 C-61.64116211 129.35499023 -61.64116211 129.35499023 -62.86914062 130.29101562 C-63.63291016 130.87431641 -64.39667969 131.45761719 -65.18359375 132.05859375 C-66.24404907 132.86768188 -66.24404907 132.86768188 -67.32592773 133.69311523 C-68.93550156 134.89475031 -68.93550156 134.89475031 -70 136 C-70.09942806 138.12308153 -70.12969184 140.24959672 -70.125 142.375 C-70.12757813 143.53773438 -70.13015625 144.70046875 -70.1328125 145.8984375 C-70.14106843 149.03571423 -70.14106843 149.03571423 -69 152 C-63.30683923 154.246697 -57.62727903 154.415418 -51.5625 154.625 C-50.17901367 154.68300781 -50.17901367 154.68300781 -48.76757812 154.7421875 C-46.51190857 154.83568676 -44.25623084 154.9214391 -42 155 C-41.87733765 154.11006348 -41.87733765 154.11006348 -41.75219727 153.20214844 C-40.76480593 150.31144093 -39.45161607 149.50462662 -36.96484375 147.765625 C-35.75151367 146.90517578 -35.75151367 146.90517578 -34.51367188 146.02734375 C-33.66353516 145.44082031 -32.81339844 144.85429688 -31.9375 144.25 C-31.08349609 143.64800781 -30.22949219 143.04601562 -29.34960938 142.42578125 C-27.23972686 140.94061255 -25.123247 139.46596854 -23 138 C-22.67 138.99 -22.34 139.98 -22 141 C-24.26976982 142.79302821 -26.54076244 144.58446793 -28.8125 146.375 C-29.45509766 146.88289062 -30.09769531 147.39078125 -30.75976562 147.9140625 C-31.38173828 148.40390625 -32.00371094 148.89375 -32.64453125 149.3984375 C-33.21534424 149.84880371 -33.78615723 150.29916992 -34.37426758 150.76318359 C-35.87201655 151.90263341 -37.43415344 152.95610229 -39 154 C-31.97597192 153.85055259 -28.18256853 150.50096088 -23 146 C-22.67 146.99 -22.34 147.98 -22 149 C-24.475 151.475 -24.475 151.475 -27 154 C-23.5440102 152.61760408 -21.42823999 151.63835774 -19.328125 148.5078125 C-17.58432309 143.90212394 -17.52301195 139.88215942 -17.5625 135 C-17.54251953 134.1234375 -17.52253906 133.246875 -17.50195312 132.34375 C-17.50610637 126.82824183 -17.94288528 123.10198012 -22 119 C-28.88638818 116.18888985 -36.6374164 116.53363542 -43.99389648 116.22424316 C-85.01463616 114.41979227 -85.01463616 114.41979227 -98.25 100.9375 C-112.64134868 83.55158785 -112.36802731 60.67923007 -110.80517578 39.33984375 C-109.53903307 26.76645115 -105.0836299 14.04662253 -96.203125 4.74609375 C-88.72071574 -1.18411359 -79.48480603 -5.06390884 -70 -6 C-68.93652344 -6.10828125 -67.87304688 -6.2165625 -66.77734375 -6.328125 C-18.09369903 -10.21872121 -18.09369903 -10.21872121 0 0 Z " fill="#010100" transform="translate(359,392)"/>
<path d="M0 0 C1.59521484 -0.05800781 1.59521484 -0.05800781 3.22265625 -0.1171875 C9.47209265 -0.0405073 13.20840966 1.20047163 17.80004883 5.51245117 C23.46855071 11.49642768 23.95340061 16.37110023 23.79296875 24.37890625 C23.80016434 25.60858627 23.80735992 26.8382663 23.81477356 28.10520935 C23.81718467 30.69124438 23.79476967 33.27740994 23.7487793 35.86303711 C23.68758135 39.80725671 23.72793328 43.74136324 23.77929688 47.68554688 C23.76909479 50.20836521 23.75301674 52.73116805 23.73046875 55.25390625 C23.74554977 56.42288956 23.7606308 57.59187286 23.77616882 58.79627991 C23.59543035 65.13543357 22.73053185 68.78242062 18.32739258 73.48754883 C14.6590912 76.66638907 12.01461628 78.39604193 7.03125 78.4453125 C5.88269531 78.45691406 4.73414063 78.46851563 3.55078125 78.48046875 C2.37902344 78.44566406 1.20726562 78.41085937 0 78.375 C-1.17175781 78.40980469 -2.34351563 78.44460938 -3.55078125 78.48046875 C-4.69933594 78.46886719 -5.84789062 78.45726562 -7.03125 78.4453125 C-8.05798828 78.43516113 -9.08472656 78.42500977 -10.14257812 78.41455078 C-15.67534808 76.49546172 -19.25068782 73.08381542 -22.5 68.25 C-23.75497153 63.89276487 -23.78870654 59.76812265 -23.73046875 55.25390625 C-23.74694206 53.4108213 -23.74694206 53.4108213 -23.76374817 51.53050232 C-23.77421275 48.94277368 -23.7619679 46.35486438 -23.72827148 43.76733398 C-23.68762823 39.82493843 -23.74824681 35.89297436 -23.81835938 31.95117188 C-23.81600601 29.42707024 -23.80773852 26.90296577 -23.79296875 24.37890625 C-23.81634811 23.21194717 -23.83972748 22.0449881 -23.86381531 20.84266663 C-23.69183253 14.08722348 -22.50541115 10.47968558 -17.80004883 5.51245117 C-12.25404646 0.30423513 -7.39406411 -0.26887506 0 0 Z " fill="#C5A442" transform="translate(538.5,421.75)"/>
<path d="M0 0 C11.22 0 22.44 0 34 0 C42.26669443 8.26669443 43.2736135 9.61621616 43.37109375 20.37695312 C43.37085205 21.37674194 43.37085205 21.37674194 43.37060547 22.39672852 C43.37497836 24.42744854 43.41130537 26.45599267 43.44921875 28.48632812 C43.45501953 30.40928711 43.45501953 30.40928711 43.4609375 32.37109375 C43.46915527 33.54599365 43.47737305 34.72089355 43.48583984 35.93139648 C42.90437772 39.60395804 41.76541518 40.63095083 39 43 C37.77242701 49.86889158 41.29977441 58.11849376 43.27124023 64.66650391 C43.49239502 65.41206543 43.7135498 66.15762695 43.94140625 66.92578125 C44.14451416 67.59005127 44.34762207 68.25432129 44.55688477 68.9387207 C45 71 45 71 45 76 C40.38 76 35.76 76 31 76 C28.69 67.09 26.38 58.18 24 49 C20.7 48.67 17.4 48.34 14 48 C14 57.57 14 67.14 14 77 C9.38 77 4.76 77 0 77 C0 51.59 0 26.18 0 0 Z " fill="#C6A544" transform="translate(1016,423)"/>
<path d="M0 0 C4.62 0 9.24 0 14 0 C14.33 10.89 14.66 21.78 15 33 C24.35604708 22.95455998 28.5154056 17.1957606 28.203125 3.41015625 C28.10257813 1.72212891 28.10257813 1.72212891 28 0 C32.62 0 37.24 0 42 0 C43.5905574 22.0714385 43.5905574 22.0714385 37.5 29.375 C36.04997515 30.9637618 34.56689472 32.52637282 33 34 C33.59748047 34.79664063 33.59748047 34.79664063 34.20703125 35.609375 C35.8046875 37.73958333 37.40234375 39.86979167 39 42 C39.78310547 42.8343457 39.78310547 42.8343457 40.58203125 43.68554688 C42.56829444 46.92758803 42.33945823 49.39073044 42.29296875 53.171875 C42.28872391 53.8542926 42.28447906 54.53671021 42.28010559 55.23980713 C42.26336972 57.41028004 42.22572959 59.57980979 42.1875 61.75 C42.17244646 63.22524697 42.15875922 64.70050855 42.14648438 66.17578125 C42.11603956 69.78450607 42.05731619 73.39120275 42 77 C37.38 77 32.76 77 28 77 C27.98582031 75.09734375 27.97164062 73.1946875 27.95703125 71.234375 C27.91013621 68.73955891 27.86188881 66.24476797 27.8125 63.75 C27.80669922 62.49574219 27.80089844 61.24148438 27.79492188 59.94921875 C27.76591797 58.74394531 27.73691406 57.53867187 27.70703125 56.296875 C27.6913208 55.18666992 27.67561035 54.07646484 27.65942383 52.93261719 C26.80422227 49.12932908 25.19287936 48.08859192 22 46 C21.773125 46.515625 21.54625 47.03125 21.3125 47.5625 C20 50 20 50 17.46875 53 C14.18110911 57.56269554 14.2229579 61.96516473 14.1875 67.4375 C14.16236328 68.35982422 14.13722656 69.28214844 14.11132812 70.23242188 C14.05289787 72.48782972 14.02347821 74.74395758 14 77 C9.38 77 4.76 77 0 77 C0 51.59 0 26.18 0 0 Z " fill="#C6A442" transform="translate(1080,423)"/>
<path d="M0 0 C10.89 0 21.78 0 33 0 C43.14048196 10.14048196 43.14048196 10.14048196 43.16015625 16.37890625 C43.16639511 17.03527573 43.17263397 17.6916452 43.17906189 18.36790466 C43.18078634 19.74012793 43.16042352 21.11254988 43.1184082 22.48413086 C43.06238511 24.56677118 43.09763953 26.63415075 43.14257812 28.71679688 C43.14525704 33.82993116 43.13656921 38.33004487 40.17919922 42.67529297 C38.21128152 44.62648491 36.18688999 46.30563952 34 48 C33.505 48.99 33.505 48.99 33 50 C26.4 50 19.8 50 13 50 C13 58.58 13 67.16 13 76 C8.71 76 4.42 76 0 76 C0 50.92 0 25.84 0 0 Z " fill="#C5A340" transform="translate(890,423)"/>
<path d="M0 0 C6.27 0 12.54 0 19 0 C21.17945611 8.51348782 23.12908476 17.04503347 24.91796875 25.6484375 C25.18007645 26.90459869 25.44218414 28.16075989 25.7122345 29.45498657 C26.26104222 32.08827372 26.80776852 34.72198343 27.35327148 37.35595703 C28.05023999 40.71926266 28.75501842 44.08088175 29.46161938 47.44217491 C30.13985951 50.67650115 30.80960853 53.91257256 31.48046875 57.1484375 C31.73354294 58.34850433 31.98661713 59.54857117 32.24736023 60.78500366 C32.47792618 61.90702179 32.70849213 63.02903992 32.94604492 64.18505859 C33.15017502 65.16590424 33.35430511 66.14674988 33.56462097 67.15731812 C34 70 34 70 34 76 C29.71 76 25.42 76 21 76 C19.08392638 70.25177915 18.48228109 65.94813341 18 60 C12.72 60 7.44 60 2 60 C1.690625 61.876875 1.38125 63.75375 1.0625 65.6875 C0.43767967 69.47807664 -0.24621687 73.23108435 -1 77 C-5.62 77 -10.24 77 -15 77 C-13.48566269 66.74110707 -11.6822424 56.56202973 -9.75 46.375 C-9.59892792 45.57494537 -9.44785583 44.77489075 -9.29220581 43.95059204 C-6.50534437 29.22610934 -3.38075085 14.60038552 0 0 Z " fill="#C6A543" transform="translate(690,423)"/>
<path d="M0 0 C0.79075928 0.00523682 1.58151855 0.01047363 2.39624023 0.01586914 C3.67724609 0.02070313 3.67724609 0.02070313 4.98413086 0.02563477 C5.88196289 0.03401367 6.77979492 0.04239258 7.70483398 0.05102539 C8.6065332 0.05553711 9.50823242 0.06004883 10.43725586 0.06469727 C12.67234712 0.07652315 14.90730835 0.09300319 17.14233398 0.11352539 C20.72443691 16.41198651 24.11553022 32.74616977 27.40090942 49.10684204 C27.81211075 51.15421709 28.22428244 53.20139748 28.63742065 55.24838257 C29.22289874 58.15203541 29.80435062 61.0564643 30.38452148 63.96118164 C30.56236679 64.84127899 30.7402121 65.72137634 30.92344666 66.62814331 C31.08446365 67.43937653 31.24548065 68.25060974 31.41137695 69.08642578 C31.55316376 69.79473038 31.69495056 70.50303497 31.84103394 71.23280334 C32.14233398 73.11352539 32.14233398 73.11352539 32.14233398 76.11352539 C27.52233398 76.11352539 22.90233398 76.11352539 18.14233398 76.11352539 C17.15233398 71.16352539 16.16233398 66.21352539 15.14233398 61.11352539 C10.19233398 61.11352539 5.24233398 61.11352539 0.14233398 61.11352539 C-0.84766602 66.06352539 -1.83766602 71.01352539 -2.85766602 76.11352539 C-7.47766602 76.11352539 -12.09766602 76.11352539 -16.85766602 76.11352539 C-16.21034562 68.52222252 -14.7148724 61.16884783 -13.13262939 53.7272644 C-10.10424538 39.47643346 -7.31481198 25.1921191 -4.72412109 10.85546875 C-4.37643677 8.95486694 -4.37643677 8.95486694 -4.02172852 7.01586914 C-3.71936279 5.33738892 -3.71936279 5.33738892 -3.41088867 3.625 C-2.64802752 0.16182584 -2.64802752 0.16182584 0 0 Z " fill="#C5A442" transform="translate(966.857666015625,422.886474609375)"/>
<path d="M0 0 C1.06089844 0.02570068 2.12179687 0.05140137 3.21484375 0.07788086 C9.43547752 0.44790463 13.78564548 1.1535895 18.5625 5.25 C23.72729783 11.87275737 22.79039691 18.18063402 22.0625 26.1875 C17.4425 26.1875 12.8225 26.1875 8.0625 26.1875 C7.5675 21.2375 7.5675 21.2375 7.0625 16.1875 C2.7725 16.1875 -1.5175 16.1875 -5.9375 16.1875 C-5.9375 21.1375 -5.9375 26.0875 -5.9375 31.1875 C-4.75414062 31.14367187 -3.57078125 31.09984375 -2.3515625 31.0546875 C5.06547275 30.97312991 12.09480519 30.98591181 18.1875 35.6875 C24.1553243 42.84057164 23.63993788 52.41993238 22.984375 61.30859375 C22.35548923 66.29509476 21.63189866 69.74016528 18.5625 73.75 C10.83096181 79.60149509 -0.11783238 78.85262703 -9.31689453 77.70898438 C-14.0916817 76.75883109 -16.86676282 75.04355627 -19.77734375 71.1875 C-22.13820401 65.08264922 -21.45968633 59.62779809 -20.9375 53.1875 C-16.3175 53.1875 -11.6975 53.1875 -6.9375 53.1875 C-6.6075 56.4875 -6.2775 59.7875 -5.9375 63.1875 C-3.95840602 63.21436553 -1.97921029 63.23383375 0 63.25 C1.10214844 63.26160156 2.20429688 63.27320313 3.33984375 63.28515625 C5.97697634 63.50012571 5.97697634 63.50012571 7.0625 62.1875 C7.16159302 59.85589945 7.19220504 57.52120058 7.1875 55.1875 C7.19007813 53.90875 7.19265625 52.63 7.1953125 51.3125 C7.42110893 48.32062756 7.42110893 48.32062756 6.0625 47.1875 C4.8353125 47.1875 3.608125 47.1875 2.34375 47.1875 C1.57546875 47.18621094 0.8071875 47.18492187 0.015625 47.18359375 C-1.58889682 47.18614872 -3.19372381 47.21880065 -4.796875 47.28515625 C-9.98894491 47.20779097 -13.01273294 45.87418413 -16.9609375 42.46875 C-22.18448145 36.6795702 -22.28607323 31.21446527 -22.0625 23.6875 C-22.09730469 22.51574219 -22.13210938 21.34398437 -22.16796875 20.13671875 C-22.10451436 13.85473424 -21.32176988 9.7160547 -17.11328125 4.91796875 C-11.74639513 0.30882319 -6.89827083 -0.25447099 0 0 Z " fill="#C6A543" transform="translate(474.9375,421.8125)"/>
<path d="M0 0 C1.06347656 0.02827881 2.12695312 0.05655762 3.22265625 0.08569336 C8.92264192 0.41810423 13.48806293 0.8913991 18 4.6875 C22.57335731 10.74647019 21.76609224 17.94643194 21 25.125 C16.71 25.125 12.42 25.125 8 25.125 C8 22.155 8 19.185 8 16.125 C2.72 16.125 -2.56 16.125 -8 16.125 C-8 21.075 -8 26.025 -8 31.125 C-5.95619141 31.0940625 -5.95619141 31.0940625 -3.87109375 31.0625 C10.4151386 31.12484475 10.4151386 31.12484475 14.81640625 33.90234375 C16.49383039 35.90583305 17.76920469 37.82782861 19 40.125 C19.66 40.785 20.32 41.445 21 42.125 C21.6230087 46.28702709 21.60275618 50.48466437 21.6875 54.6875 C21.75388672 55.84314453 21.82027344 56.99878906 21.88867188 58.18945312 C21.99971046 64.49716107 21.4542101 68.55951753 17.20703125 73.39453125 C11.80379167 78.0181963 6.92693332 78.53051486 0 78.25 C-1.59521484 78.20758179 -1.59521484 78.20758179 -3.22265625 78.16430664 C-8.92264192 77.83189577 -13.48806293 77.3586009 -18 73.5625 C-22.57335731 67.50352981 -21.76609224 60.30356806 -21 53.125 C-16.71 53.125 -12.42 53.125 -8 53.125 C-7.77213542 55.43619792 -7.54427083 57.74739583 -7.31640625 60.05859375 C-7.21069185 62.11162025 -7.21069185 62.11162025 -6 63.125 C-4.00200428 63.22373816 -2.00042842 63.25471799 0 63.25 C1.093125 63.25257813 2.18625 63.25515625 3.3125 63.2578125 C5.91830354 63.43047755 5.91830354 63.43047755 7 62.125 C7.09909302 59.79339945 7.12970504 57.45870058 7.125 55.125 C7.12757813 53.84625 7.13015625 52.5675 7.1328125 51.25 C7.35860893 48.25812756 7.35860893 48.25812756 6 47.125 C4.7728125 47.125 3.545625 47.125 2.28125 47.125 C1.51296875 47.12371094 0.7446875 47.12242187 -0.046875 47.12109375 C-1.65139682 47.12364872 -3.25622381 47.15630065 -4.859375 47.22265625 C-10.05144491 47.14529097 -13.07523294 45.81168413 -17.0234375 42.40625 C-22.24698145 36.6170702 -22.34857323 31.15196527 -22.125 23.625 C-22.15980469 22.45324219 -22.19460938 21.28148437 -22.23046875 20.07421875 C-22.16703239 13.7940192 -21.3833655 9.65128439 -17.1796875 4.8515625 C-11.79165195 0.22226993 -6.9178437 -0.28014676 0 0 Z " fill="#C5A340" transform="translate(849,421.875)"/>
<path d="M0 0 C1.6550354 0.0453186 1.6550354 0.0453186 3.34350586 0.09155273 C9.66015827 0.4797269 14.20329726 1.15246312 19.0625 5.3125 C24.15472576 11.9276344 23.22370014 18.28929848 22.5 26.25 C17.88 26.25 13.26 26.25 8.5 26.25 C8.005 21.3 8.005 21.3 7.5 16.25 C2.55 16.25 -2.4 16.25 -7.5 16.25 C-7.52464347 22.78279339 -7.54283291 29.31555998 -7.55493164 35.84838867 C-7.55997317 38.07267732 -7.56680623 40.29696263 -7.57543945 42.52124023 C-7.58751298 45.71078309 -7.59322996 48.90028229 -7.59765625 52.08984375 C-7.60281754 53.09087631 -7.60797882 54.09190887 -7.61329651 55.12327576 C-7.61337204 56.04415482 -7.61344757 56.96503387 -7.61352539 57.91381836 C-7.61685631 59.13626503 -7.61685631 59.13626503 -7.62025452 60.38340759 C-7.70528245 62.26477856 -7.70528245 62.26477856 -6.5 63.25 C-4.33519203 63.3489294 -2.16706215 63.379711 0 63.375 C1.1859375 63.37757813 2.371875 63.38015625 3.59375 63.3828125 C6.39259422 63.58210219 6.39259422 63.58210219 7.5 62.25 C7.73192865 60.73530552 7.91215238 59.21245438 8.0625 57.6875 C8.2790625 55.4909375 8.2790625 55.4909375 8.5 53.25 C13.12 53.25 17.74 53.25 22.5 53.25 C23.72511771 66.47106196 23.72511771 66.47106196 20.7890625 70.734375 C18.76974095 72.44022786 16.74721281 73.86467001 14.5 75.25 C13.84 75.91 13.18 76.57 12.5 77.25 C8.29474926 77.8448311 4.05472152 77.80617001 -0.1875 77.875 C-1.35990234 77.93300781 -2.53230469 77.99101562 -3.74023438 78.05078125 C-12.2978832 78.17641585 -12.2978832 78.17641585 -15.82275391 75.45996094 C-17.54153003 73.46548582 -19.00799294 71.41435088 -20.5 69.25 C-21.16 68.92 -21.82 68.59 -22.5 68.25 C-22.73295736 60.99155573 -22.90999945 53.73393217 -23.01812172 46.47249031 C-23.07005192 43.09944653 -23.14031342 39.72898131 -23.25439453 36.35742188 C-23.37643442 32.4693746 -23.43256971 28.58493285 -23.4765625 24.6953125 C-23.52817535 23.50011993 -23.57978821 22.30492737 -23.63296509 21.07351685 C-23.63751935 14.19712333 -22.61836463 10.55723263 -17.81982422 5.49267578 C-12.28778252 0.33366038 -7.36778078 -0.31961327 0 0 Z " fill="#C6A543" transform="translate(602.5,421.75)"/>
<path d="M0 0 C7.59 0 15.18 0 23 0 C30 7 30 7 30.84228516 9.67480469 C30.81593994 10.91085449 30.81593994 10.91085449 30.7890625 12.171875 C30.78003906 13.08324219 30.77101563 13.99460937 30.76171875 14.93359375 C30.69404297 16.32771484 30.69404297 16.32771484 30.625 17.75 C30.61855469 18.69488281 30.61210938 19.63976562 30.60546875 20.61328125 C30.438337 27.52467047 30.438337 27.52467047 28.46386719 29.66577148 C27.98079102 30.10606689 27.49771484 30.5463623 27 31 C26.96588718 33.06630541 26.96588718 33.06630541 27.625 35.3125 C27.83125 36.18261719 28.0375 37.05273438 28.25 37.94921875 C28.4975 38.95597656 28.745 39.96273437 29 41 C29.54756846 43.54040174 30.08911206 46.08210867 30.625 48.625 C31.08265412 50.75014638 31.54074888 52.87519816 32 55 C28.7 55 25.4 55 22 55 C21.15960114 52.41877492 20.32749444 49.83536099 19.5 47.25 C19.14228516 46.15558594 19.14228516 46.15558594 18.77734375 45.0390625 C18.55175781 44.33007812 18.32617188 43.62109375 18.09375 42.890625 C17.88427734 42.24125977 17.67480469 41.59189453 17.45898438 40.92285156 C17 39 17 39 17 35 C14.69 35 12.38 35 10 35 C10 41.6 10 48.2 10 55 C6.7 55 3.4 55 0 55 C0 36.85 0 18.7 0 0 Z " fill="#C6A645" transform="translate(891,522)"/>
<path d="M0 0 C3.63 0 7.26 0 11 0 C14.3 8.58 17.6 17.16 21 26 C21.33 17.42 21.66 8.84 22 0 C25.3 0 28.6 0 32 0 C32 17.82 32 35.64 32 54 C28.37 54 24.74 54 21 54 C17.7 45.75 14.4 37.5 11 29 C10.67 37.25 10.34 45.5 10 54 C6.7 54 3.4 54 0 54 C0 36.18 0 18.36 0 0 Z " fill="#C6A544" transform="translate(693,523)"/>
<path d="M0 0 C4.29 0 8.58 0 13 0 C13 20.79 13 41.58 13 63 C20.26 63 27.52 63 35 63 C35 67.29 35 71.58 35 76 C23.45 76 11.9 76 0 76 C0 50.92 0 25.84 0 0 Z " fill="#C5A33F" transform="translate(742,423)"/>
<path d="M0 0 C0.80759766 -0.00773438 1.61519531 -0.01546875 2.44726562 -0.0234375 C3.26775391 -0.00023437 4.08824219 0.02296875 4.93359375 0.046875 C6.17012695 0.01207031 6.17012695 0.01207031 7.43164062 -0.0234375 C11.81014242 0.01856252 14.63196036 0.48421005 17.9375 3.4765625 C20.50929669 6.48377909 21.03880776 8.67145021 20.74609375 12.671875 C20.69195313 13.63867188 20.6378125 14.60546875 20.58203125 15.6015625 C20.51242187 16.32601562 20.4428125 17.05046875 20.37109375 17.796875 C17.07109375 17.796875 13.77109375 17.796875 10.37109375 17.796875 C10.04109375 15.486875 9.71109375 13.176875 9.37109375 10.796875 C6.07109375 10.796875 2.77109375 10.796875 -0.62890625 10.796875 C-0.62890625 21.686875 -0.62890625 32.576875 -0.62890625 43.796875 C2.67109375 43.796875 5.97109375 43.796875 9.37109375 43.796875 C9.70109375 40.166875 10.03109375 36.536875 10.37109375 32.796875 C8.72109375 32.796875 7.07109375 32.796875 5.37109375 32.796875 C5.37109375 29.496875 5.37109375 26.196875 5.37109375 22.796875 C10.32109375 22.796875 15.27109375 22.796875 20.37109375 22.796875 C20.56066175 26.81992925 20.69907516 30.83400818 20.80859375 34.859375 C20.86724609 35.99310547 20.92589844 37.12683594 20.98632812 38.29492188 C21.09778121 43.75612283 21.14346768 47.82281781 17.40625 52.05078125 C13.2773449 55.43363087 9.57409825 55.85520234 4.37109375 55.671875 C3.6028125 55.69894531 2.83453125 55.72601562 2.04296875 55.75390625 C-2.3850956 55.7011912 -5.08290602 54.88677007 -8.34423828 51.82885742 C-12.36206889 47.57981776 -12.654124 44.03130317 -12.55859375 38.35546875 C-12.56529083 37.46956558 -12.57198792 36.58366241 -12.57888794 35.6709137 C-12.58362893 33.8076731 -12.57086814 31.94431405 -12.54150391 30.08129883 C-12.50394221 27.23709814 -12.54121258 24.40060501 -12.5859375 21.55664062 C-12.5813123 19.73956636 -12.57234462 17.92249687 -12.55859375 16.10546875 C-12.57276337 15.26157089 -12.58693298 14.41767303 -12.60153198 13.54820251 C-12.50526135 10.06736684 -12.34269729 7.7186568 -10.1710968 4.91427612 C-7.06506309 2.0854131 -4.33120019 0.04064583 0 0 Z " fill="#C6A543" transform="translate(749.62890625,522.203125)"/>
<path d="M0 0 C4.29 0 8.58 0 13 0 C14.74494871 5.74818225 15.99374874 11.53220764 17.1640625 17.421875 C17.36099701 18.40367737 17.55793152 19.38547974 17.76083374 20.39703369 C18.17400502 22.46085759 18.58573319 24.52497086 18.99609375 26.58935547 C19.62588776 29.75446153 20.26186249 32.91828286 20.8984375 36.08203125 C21.2998494 38.0910719 21.70090363 40.10018404 22.1015625 42.109375 C22.2921524 43.05625183 22.48274231 44.00312866 22.67910767 44.97869873 C22.85283905 45.85681213 23.02657043 46.73492554 23.20556641 47.63964844 C23.35941803 48.41129333 23.51326965 49.18293823 23.67178345 49.97796631 C24 52 24 52 24 55 C20.7 55 17.4 55 14 55 C12.86235649 50.73383684 12 47.43513689 12 43 C8.37 43 4.74 43 1 43 C0.7834375 45.1346875 0.7834375 45.1346875 0.5625 47.3125 C0.27859126 50.11102904 -0.1031286 52.3093858 -1 55 C-4.3 55 -7.6 55 -11 55 C-10.39535925 45.94899307 -8.51586038 37.24375955 -6.61645508 28.39477539 C-6.06182442 25.80935079 -5.51563024 23.22225098 -4.97070312 20.63476562 C-4.61767903 18.97124978 -4.26417977 17.30783469 -3.91015625 15.64453125 C-3.66786034 14.49897514 -3.66786034 14.49897514 -3.42066956 13.33027649 C-2.45055221 8.82589985 -1.31409816 4.41663764 0 0 Z " fill="#C6A544" transform="translate(552,522)"/>
<path d="M0 0 C3.10627629 2.62887727 4.24989343 4.66833463 4.80859375 8.71484375 C4.84043066 11.45281809 4.71598812 14.08196889 4.40625 16.80078125 C1.10625 16.80078125 -2.19375 16.80078125 -5.59375 16.80078125 C-5.92375 14.49078125 -6.25375 12.18078125 -6.59375 9.80078125 C-9.23375 9.80078125 -11.87375 9.80078125 -14.59375 9.80078125 C-14.59375 13.43078125 -14.59375 17.06078125 -14.59375 20.80078125 C-13.72492188 20.80335938 -12.85609375 20.8059375 -11.9609375 20.80859375 C-10.23230469 20.86660156 -10.23230469 20.86660156 -8.46875 20.92578125 C-7.33179688 20.94898438 -6.19484375 20.9721875 -5.0234375 20.99609375 C-1.1494641 21.90502145 0.63702736 22.94528574 3.25927734 25.87060547 C5.49649754 29.63549752 5.2692377 33.53235695 5.15625 37.80078125 C5.17945313 38.67734375 5.20265625 39.55390625 5.2265625 40.45703125 C5.18681356 44.85591392 4.83485152 47.98416831 1.88671875 51.375 C-1.81166701 54.48902543 -5.32919182 54.76799847 -10.03125 54.61328125 C-11.1613147 54.58778198 -11.1613147 54.58778198 -12.31420898 54.56176758 C-16.58967938 54.31717545 -19.79293687 53.85332577 -23.15625 50.98828125 C-26.70357697 46.42743228 -26.21994275 41.29736208 -25.59375 35.80078125 C-22.29375 35.80078125 -18.99375 35.80078125 -15.59375 35.80078125 C-15.59375 38.44078125 -15.59375 41.08078125 -15.59375 43.80078125 C-12.29375 43.80078125 -8.99375 43.80078125 -5.59375 43.80078125 C-5.59375 39.84078125 -5.59375 35.88078125 -5.59375 31.80078125 C-6.45097656 31.88199219 -7.30820312 31.96320312 -8.19140625 32.046875 C-18.73005606 32.6290552 -18.73005606 32.6290552 -22.90625 29.48828125 C-27.23455232 24.22706164 -26.67638167 16.70903448 -26.2421875 10.25 C-25.83223948 6.7158396 -25.33154027 3.98452008 -23.09375 1.11328125 C-17.0389718 -3.31613641 -6.60993292 -3.0560985 0 0 Z " fill="#C7A646" transform="translate(479.59375,523.19921875)"/>
<path d="M0 0 C3.10627629 2.62887727 4.24989343 4.66833463 4.80859375 8.71484375 C4.84043066 11.45281809 4.71598812 14.08196889 4.40625 16.80078125 C1.10625 16.80078125 -2.19375 16.80078125 -5.59375 16.80078125 C-5.92375 14.49078125 -6.25375 12.18078125 -6.59375 9.80078125 C-9.56375 9.80078125 -12.53375 9.80078125 -15.59375 9.80078125 C-15.59375 13.43078125 -15.59375 17.06078125 -15.59375 20.80078125 C-14.65273437 20.79175781 -13.71171875 20.78273438 -12.7421875 20.7734375 C-1.27282192 21.04651763 -1.27282192 21.04651763 2.28125 24.23828125 C6.41973657 30.41377991 5.65597894 39.78227589 4.40625 46.80078125 C3.34082643 49.75183544 2.56046898 50.98138325 0.0703125 52.8515625 C-3.67497941 54.18602868 -7.19744928 54.49728174 -11.15625 54.61328125 C-11.88835693 54.63793457 -12.62046387 54.66258789 -13.37475586 54.68798828 C-17.49656841 54.5827188 -20.00131566 53.91924779 -23.09765625 51.1171875 C-25.08722545 48.83762135 -25.58009692 47.870503 -26.1796875 44.80859375 C-26.11007812 43.85726562 -26.04046875 42.9059375 -25.96875 41.92578125 C-25.91460938 40.95898438 -25.86046875 39.9921875 -25.8046875 38.99609375 C-25.73507812 38.27164063 -25.66546875 37.5471875 -25.59375 36.80078125 C-22.62375 36.80078125 -19.65375 36.80078125 -16.59375 36.80078125 C-16.26375 38.78078125 -15.93375 40.76078125 -15.59375 42.80078125 C-12.62375 42.80078125 -9.65375 42.80078125 -6.59375 42.80078125 C-6.26375 39.17078125 -5.93375 35.54078125 -5.59375 31.80078125 C-6.45097656 31.88199219 -7.30820313 31.96320312 -8.19140625 32.046875 C-18.73005606 32.6290552 -18.73005606 32.6290552 -22.90625 29.48828125 C-27.23455232 24.22706164 -26.67638167 16.70903448 -26.2421875 10.25 C-25.83223948 6.7158396 -25.33154027 3.98452008 -23.09375 1.11328125 C-17.0389718 -3.31613641 -6.60993292 -3.0560985 0 0 Z " fill="#C6A543" transform="translate(1117.59375,523.19921875)"/>
<path d="M0 0 C3.10627629 2.62887727 4.24989343 4.66833463 4.80859375 8.71484375 C4.84043066 11.45281809 4.71598812 14.08196889 4.40625 16.80078125 C1.43625 16.80078125 -1.53375 16.80078125 -4.59375 16.80078125 C-4.92375 14.49078125 -5.25375 12.18078125 -5.59375 9.80078125 C-8.56375 9.80078125 -11.53375 9.80078125 -14.59375 9.80078125 C-14.59375 13.43078125 -14.59375 17.06078125 -14.59375 20.80078125 C-13.72492187 20.80335938 -12.85609375 20.8059375 -11.9609375 20.80859375 C-10.23230469 20.86660156 -10.23230469 20.86660156 -8.46875 20.92578125 C-7.33179688 20.94898438 -6.19484375 20.9721875 -5.0234375 20.99609375 C-1.1494641 21.90502145 0.63702736 22.94528574 3.25927734 25.87060547 C5.49649754 29.63549752 5.2692377 33.53235695 5.15625 37.80078125 C5.17945313 38.67734375 5.20265625 39.55390625 5.2265625 40.45703125 C5.18681356 44.85591392 4.83485152 47.98416831 1.88671875 51.375 C-1.81190376 54.48922477 -5.32902222 54.76748658 -10.03125 54.61328125 C-11.1613147 54.58886963 -11.1613147 54.58886963 -12.31420898 54.56396484 C-16.62155193 54.32083488 -19.79009916 53.84172673 -23.15625 50.92578125 C-26.60602289 46.48123259 -26.11196497 42.20502312 -25.59375 36.80078125 C-22.29375 36.80078125 -18.99375 36.80078125 -15.59375 36.80078125 C-15.26375 38.78078125 -14.93375 40.76078125 -14.59375 42.80078125 C-11.62375 42.80078125 -8.65375 42.80078125 -5.59375 42.80078125 C-5.56686849 41.15503559 -5.54740877 39.50916712 -5.53125 37.86328125 C-5.51964844 36.94675781 -5.50804687 36.03023437 -5.49609375 35.0859375 C-5.33425951 32.83484798 -5.33425951 32.83484798 -6.59375 31.80078125 C-9.7958851 31.67709363 -12.99494704 31.61059477 -16.19921875 31.5703125 C-20.07817794 30.69096272 -21.82174681 29.6200645 -24.44018555 26.69750977 C-26.62373969 23.10723842 -26.52775869 19.4677968 -26.40625 15.36328125 C-26.385625 14.51596436 -26.365 13.66864746 -26.34375 12.7956543 C-26.10637821 8.43691482 -25.86901429 4.65741824 -23.09375 1.11328125 C-17.0389718 -3.31613641 -6.60993292 -3.0560985 0 0 Z " fill="#C6A442" transform="translate(831.59375,523.19921875)"/>
<path d="M0 0 C4.62 0 9.24 0 14 0 C14 25.41 14 50.82 14 77 C9.38 77 4.76 77 0 77 C0 51.59 0 26.18 0 0 Z " fill="#C6A544" transform="translate(644,423)"/>
<path d="M0 0 C3.3 0 6.6 0 10 0 C9.09837101 5.61983933 8.03274483 11.20607201 6.96875 16.796875 C6.77277222 17.82685608 6.57679443 18.85683716 6.37487793 19.91802979 C5.9617758 22.0865487 5.5482333 24.25498376 5.13427734 26.42333984 C4.71010816 28.64802392 4.28726462 30.87296114 3.86572266 33.09814453 C3.25710816 36.31077652 2.64463406 39.52265069 2.03125 42.734375 C1.84268433 43.73329773 1.65411865 44.73222046 1.45983887 45.76141357 C1.28295532 46.6828717 1.10607178 47.60432983 0.92382812 48.55371094 C0.76918091 49.36612244 0.61453369 50.17853394 0.4552002 51.01556396 C0 53 0 53 -1 55 C-5.62 55 -10.24 55 -15 55 C-16.43044006 48.11448547 -17.85442611 41.22767965 -19.27246094 34.33959961 C-19.75571597 31.99678569 -20.24072927 29.65433372 -20.72753906 27.31225586 C-21.42716183 23.94478587 -22.12044081 20.5760627 -22.8125 17.20703125 C-23.03123779 16.16102249 -23.24997559 15.11501373 -23.4753418 14.03730774 C-23.67554932 13.05666855 -23.87575684 12.07602936 -24.08203125 11.06567383 C-24.25968018 10.20629715 -24.4373291 9.34692047 -24.62036133 8.46150208 C-25 6 -25 6 -25 1 C-21.7 1 -18.4 1 -15 1 C-12.69 12.55 -10.38 24.1 -8 36 C-5.36 24.12 -2.72 12.24 0 0 Z " fill="#C6A544" transform="translate(960,522)"/>
<path d="M0 0 C8.91 0 17.82 0 27 0 C27 3.3 27 6.6 27 10 C21.39 10 15.78 10 10 10 C10 14.29 10 18.58 10 23 C14.29 23 18.58 23 23 23 C23 26.3 23 29.6 23 33 C18.71 33 14.42 33 10 33 C10 36.96 10 40.92 10 45 C15.61 45 21.22 45 27 45 C27 48.3 27 51.6 27 55 C18.09 55 9.18 55 0 55 C0 36.85 0 18.7 0 0 Z " fill="#C7A647" transform="translate(850,522)"/>
<path d="M0 0 C0.74886475 0.02151123 1.49772949 0.04302246 2.26928711 0.06518555 C6.51753335 0.33579525 9.7184676 0.85159573 13.0625 3.6875 C16.60982697 8.24834897 16.12619275 13.37841917 15.5 18.875 C12.2 18.875 8.9 18.875 5.5 18.875 C5.17 16.565 4.84 14.255 4.5 11.875 C1.53 11.875 -1.44 11.875 -4.5 11.875 C-4.83 23.095 -5.16 34.315 -5.5 45.875 C-0.055 45.38 -0.055 45.38 5.5 44.875 C5.83 42.895 6.16 40.915 6.5 38.875 C9.47 38.875 12.44 38.875 15.5 38.875 C15.6638302 40.58004764 15.77922763 42.28977913 15.875 44 C15.94460938 44.95132813 16.01421875 45.90265625 16.0859375 46.8828125 C15.3650661 50.56406246 14.16569253 52.20342276 11.41650391 54.69287109 C7.79892794 56.92424725 4.14153443 56.7409372 0 56.625 C-0.82886719 56.64820313 -1.65773438 56.67140625 -2.51171875 56.6953125 C-3.32253906 56.68757812 -4.13335938 56.67984375 -4.96875 56.671875 C-5.69513672 56.66510742 -6.42152344 56.65833984 -7.16992188 56.65136719 C-10.94866137 55.39231526 -13.33707634 53.20379894 -15.5 49.875 C-16.35373186 46.6878846 -16.36622633 43.63407317 -16.33203125 40.34765625 C-16.3441993 38.98694252 -16.3441993 38.98694252 -16.35661316 37.59873962 C-16.36505044 35.68668364 -16.35826434 33.77450693 -16.3371582 31.86254883 C-16.31259116 28.94831381 -16.35726551 26.04073259 -16.40820312 23.12695312 C-16.40783258 21.2630153 -16.40340936 19.39907297 -16.39453125 17.53515625 C-16.41183792 16.67140884 -16.42914459 15.80766144 -16.44697571 14.91773987 C-16.33550677 10.05967861 -15.59709834 7.40647919 -12.20385742 3.8293457 C-8.39896113 0.29159449 -5.06995485 -0.22745094 0 0 Z " fill="#C7A646" transform="translate(1021.5,521.125)"/>
<path d="M0 0 C8.91 0 17.82 0 27 0 C27 3.3 27 6.6 27 10 C21.39 10 15.78 10 10 10 C10 14.29 10 18.58 10 23 C13.96 23 17.92 23 22 23 C22 25.97 22 28.94 22 32 C18.04 32 14.08 32 10 32 C10 36.29 10 40.58 10 45 C15.61 45 21.22 45 27 45 C27 48.3 27 51.6 27 55 C18.09 55 9.18 55 0 55 C0 36.85 0 18.7 0 0 Z " fill="#C6A544" transform="translate(1051,522)"/>
<path d="M0 0 C8.91 0 17.82 0 27 0 C27 3.3 27 6.6 27 10 C21.39 10 15.78 10 10 10 C10 14.29 10 18.58 10 23 C14.29 23 18.58 23 23 23 C23 25.97 23 28.94 23 32 C18.71 32 14.42 32 10 32 C10 39.59 10 47.18 10 55 C6.7 55 3.4 55 0 55 C0 36.85 0 18.7 0 0 Z " fill="#C7A748" transform="translate(588,522)"/>
<path d="M0 0 C8.91 0 17.82 0 27 0 C27 3.3 27 6.6 27 10 C21.39 10 15.78 10 10 10 C10 14.29 10 18.58 10 23 C13.96 23 17.92 23 22 23 C22 25.97 22 28.94 22 32 C18.04 32 14.08 32 10 32 C10 39.59 10 47.18 10 55 C6.7 55 3.4 55 0 55 C0 36.85 0 18.7 0 0 Z " fill="#C6A645" transform="translate(629,522)"/>
<path d="M0 0 C0.70253906 0.00386719 1.40507813 0.00773437 2.12890625 0.01171875 C2.83144531 0.00785156 3.53398438 0.00398438 4.2578125 0 C9.50229247 0.01010497 9.50229247 0.01010497 10.62890625 1.13671875 C10.73222552 2.56862736 10.76740511 4.00554678 10.77416992 5.44116211 C10.78054977 6.35558578 10.78692963 7.27000946 10.79350281 8.21214294 C10.79461563 9.2069014 10.79572845 10.20165985 10.796875 11.2265625 C10.8002034 12.24142227 10.8035318 13.25628204 10.80696106 14.30189514 C10.81203475 16.45313055 10.81436925 18.60437385 10.81420898 20.75561523 C10.81639459 24.05660911 10.83454332 27.3572685 10.85351562 30.65820312 C10.85644956 32.74348843 10.85843435 34.82877534 10.859375 36.9140625 C10.86656052 37.90679672 10.87374603 38.89953094 10.88114929 39.92234802 C10.87807266 40.83992386 10.87499603 41.75749969 10.87182617 42.70288086 C10.87325119 43.51260849 10.87467621 44.32233612 10.87614441 45.15660095 C10.62890625 47.13671875 10.62890625 47.13671875 8.62890625 49.13671875 C5.37109375 49.33203125 5.37109375 49.33203125 1.50390625 49.26171875 C-0.41808594 49.23464844 -0.41808594 49.23464844 -2.37890625 49.20703125 C-3.36632812 49.18382812 -4.35375 49.160625 -5.37109375 49.13671875 C-6.55421872 46.7704688 -6.49789577 45.34145305 -6.50048828 42.70288086 C-6.50364044 41.78530502 -6.5067926 40.86772919 -6.51004028 39.92234802 C-6.50801605 38.9296138 -6.50599182 37.93687958 -6.50390625 36.9140625 C-6.50486298 35.898246 -6.5058197 34.8824295 -6.50680542 33.83583069 C-6.50748664 31.68637022 -6.50563636 29.5369077 -6.50146484 27.38745117 C-6.4961103 24.08442603 -6.50141463 20.78153654 -6.5078125 17.47851562 C-6.50715182 15.39453095 -6.50587086 13.31054636 -6.50390625 11.2265625 C-6.50593048 10.23180405 -6.50795471 9.23704559 -6.51004028 8.21214294 C-6.50688812 7.29771927 -6.50373596 6.38329559 -6.50048828 5.44116211 C-6.49969269 4.63223007 -6.49889709 3.82329803 -6.49807739 2.98985291 C-6.22400858 -1.00976672 -3.34938123 0.00645353 0 0 Z " fill="#FEFEFD" transform="translate(536.37109375,436.86328125)"/>
<path d="M0 0 C10.23 0 20.46 0 31 0 C31 3.3 31 6.6 31 10 C27.37 10 23.74 10 20 10 C20 24.85 20 39.7 20 55 C16.7 55 13.4 55 10 55 C10 40.15 10 25.3 10 10 C6.7 10 3.4 10 0 10 C0 6.7 0 3.4 0 0 Z " fill="#C7A748" transform="translate(498,522)"/>
<path d="M0 0 C3.3 0 6.6 0 10 0 C10 18.15 10 36.3 10 55 C6.7 55 3.4 55 0 55 C0 36.85 0 18.7 0 0 Z " fill="#C6A544" transform="translate(982,522)"/>
<path d="M0 0 C3.3 0 6.6 0 10 0 C10 18.15 10 36.3 10 55 C6.7 55 3.4 55 0 55 C0 36.85 0 18.7 0 0 Z " fill="#C7A747" transform="translate(669,522)"/>
<path d="M0 0 C13.75 -0.125 13.75 -0.125 16 1 C16.05791844 4.12492251 16.09356746 7.24970766 16.125 10.375 C16.14175781 11.26445312 16.15851562 12.15390625 16.17578125 13.0703125 C16.18222656 13.92109375 16.18867187 14.771875 16.1953125 15.6484375 C16.20578613 16.43395996 16.21625977 17.21948242 16.22705078 18.02880859 C16 20 16 20 14 22 C9.32380812 22.28034724 4.68783389 22.08523334 0 22 C0 14.74 0 7.48 0 0 Z " fill="#FCFAF6" transform="translate(903,437)"/>
<path d="M0 0 C10.83984375 -0.09765625 10.83984375 -0.09765625 14 0 C15.9395114 1.9395114 15.13256629 4.8120712 15.13671875 7.38867188 C15.13285156 8.22978516 15.12898438 9.07089844 15.125 9.9375 C15.12886719 10.77474609 15.13273437 11.61199219 15.13671875 12.47460938 C15.13542969 13.27576172 15.13414063 14.07691406 15.1328125 14.90234375 C15.13168457 15.63960693 15.13055664 16.37687012 15.12939453 17.13647461 C15 19 15 19 14 21 C9.38 21 4.76 21 0 21 C0 14.07 0 7.14 0 0 Z " fill="#FCFBF7" transform="translate(1030,437)"/>
<path d="M0 0 C6.93359375 -0.09765625 6.93359375 -0.09765625 9 0 C10 1 10 1 10.1328125 3.90625 C10.13023437 5.0921875 10.12765625 6.278125 10.125 7.5 C10.12757813 8.6859375 10.13015625 9.871875 10.1328125 11.09375 C10 14 10 14 9 15 C5.99668982 15.14193337 3.00782866 15.04236378 0 15 C0 10.05 0 5.1 0 0 Z " fill="#FEFDFB" transform="translate(901,532)"/>
<path d="M0 0 C2.93249679 2.93249679 2.98232566 6.42714331 3.625 10.375 C3.82609375 11.52742188 3.82609375 11.52742188 4.03125 12.703125 C4.63064828 16.23835158 5 19.38766867 5 23 C2.03 23 -0.94 23 -4 23 C-3.29885571 17.81970092 -2.41920353 12.69648064 -1.4375 7.5625 C-1.29892578 6.83095703 -1.16035156 6.09941406 -1.01757812 5.34570312 C-0.6797819 3.56353682 -0.34009012 1.78172998 0 0 Z " fill="#FAF7EF" transform="translate(699,446)"/>
<path d="M0 0 C0.33 0 0.66 0 1 0 C1.67138621 3.26988299 2.33629263 6.54105049 3 9.8125 C3.28617188 11.2056543 3.28617188 11.2056543 3.578125 12.62695312 C3.75859375 13.51962891 3.9390625 14.41230469 4.125 15.33203125 C4.29257812 16.15421143 4.46015625 16.9763916 4.6328125 17.82348633 C5 20 5 20 5 23 C2.03 23 -0.94 23 -4 23 C-3.20736384 15.23216563 -1.58110513 7.6370361 0 0 Z " fill="#FAF8F1" transform="translate(974,446)"/>
<path d="M0 0 C0.99 0.33 1.98 0.66 3 1 C1.91305331 4.26084007 1.43154529 4.69079236 -1.23828125 6.59375 C-1.89376953 7.06683594 -2.54925781 7.53992188 -3.22460938 8.02734375 C-3.91361328 8.51332031 -4.60261719 8.99929688 -5.3125 9.5 C-6.66278741 10.46871238 -8.01304857 11.43746135 -9.36328125 12.40625 C-9.99830566 12.85613281 -10.63333008 13.30601562 -11.28759766 13.76953125 C-12.66783822 14.76132088 -14.01710259 15.79614 -15.35546875 16.84375 C-17 18 -17 18 -19 18 C-19 16.68 -19 15.36 -19 14 C-16.79899359 12.14150474 -14.70213669 10.57558463 -12.3125 9 C-11.05772277 8.14711332 -9.80380184 7.29296536 -8.55078125 6.4375 C-7.94443848 6.03144531 -7.3380957 5.62539063 -6.71337891 5.20703125 C-4.76805952 3.87719269 -4.76805952 3.87719269 -2.23046875 1.625 C-1.49441406 1.08875 -0.75835937 0.5525 0 0 Z " fill="#120F08" transform="translate(242,558)"/>
<path d="M0 0 C-2.84410603 2.28366442 -5.70195119 4.54947814 -8.5625 6.8125 C-9.36236328 7.45509766 -10.16222656 8.09769531 -10.98632812 8.75976562 C-15.47920341 12.29905105 -19.53362736 15.22008716 -25 17 C-25.66 16.67 -26.32 16.34 -27 16 C-23.54371269 13.35148522 -20.08463031 10.70664602 -16.625 8.0625 C-15.64015625 7.30775391 -14.6553125 6.55300781 -13.640625 5.77539062 C-12.69960938 5.05673828 -11.75859375 4.33808594 -10.7890625 3.59765625 C-9.91975098 2.93258057 -9.05043945 2.26750488 -8.15478516 1.58227539 C-4.89814485 -0.80910075 -3.82972761 -1.14891828 0 0 Z " fill="#12100A" transform="translate(345,594)"/>
<path d="M0 0 C0.33 1.32 0.66 2.64 1 4 C-1.92827026 6.345111 -4.86905087 8.67397918 -7.8125 11 C-8.64587891 11.66773438 -9.47925781 12.33546875 -10.33789062 13.0234375 C-11.14033203 13.65507812 -11.94277344 14.28671875 -12.76953125 14.9375 C-13.50792236 15.52402344 -14.24631348 16.11054688 -15.00708008 16.71484375 C-17 18 -17 18 -20 18 C-19.63234567 15.352817 -19.23326013 14.21747733 -17.25 12.3684082 C-16.5075 11.85109131 -15.765 11.33377441 -15 10.80078125 C-14.195625 10.23166016 -13.39125 9.66253906 -12.5625 9.07617188 C-11.716875 8.49416016 -10.87125 7.91214844 -10 7.3125 C-8.33304953 6.14233126 -6.66636831 4.97177885 -5 3.80078125 C-4.2575 3.28684814 -3.515 2.77291504 -2.75 2.2434082 C-1.06085716 1.1164782 -1.06085716 1.1164782 0 0 Z " fill="#100D07" transform="translate(243,466)"/>
<path d="M0 0 C0 0.66 0 1.32 0 2 C-1.72827148 3.49633789 -1.72827148 3.49633789 -4.12109375 5.22265625 C-5.40016602 6.15368164 -5.40016602 6.15368164 -6.70507812 7.10351562 C-7.60677734 7.74998047 -8.50847656 8.39644531 -9.4375 9.0625 C-11.20741945 10.34451631 -12.97697061 11.62704128 -14.74609375 12.91015625 C-15.93223267 13.76299194 -15.93223267 13.76299194 -17.14233398 14.63305664 C-18.91803313 15.86788368 -18.91803313 15.86788368 -20 17 C-21.66617115 17.04063832 -23.33388095 17.042721 -25 17 C-20.97353311 12.75290479 -16.60532986 9.20869521 -11.9375 5.6875 C-11.23044922 5.13771484 -10.52339844 4.58792969 -9.79492188 4.02148438 C-9.10849609 3.50263672 -8.42207031 2.98378906 -7.71484375 2.44921875 C-7.09730225 1.97830811 -6.47976074 1.50739746 -5.84350586 1.0222168 C-4 0 -4 0 0 0 Z " fill="#0C0B07" transform="translate(297,595)"/>
<path d="M0 0 C0.99 0.33 1.98 0.66 3 1 C3 1.66 3 2.32 3 3 C1.40618494 4.29590571 -0.25324782 5.51152694 -1.9375 6.6875 C-7.07162091 10.32527738 -12.06351272 14.09956561 -17 18 C-17.66 17.67 -18.32 17.34 -19 17 C-19 16.01 -19 15.02 -19 14 C-16.80487579 12.22073153 -14.64926586 10.63357235 -12.3125 9.0625 C-11.05768434 8.20054115 -9.80376278 7.33727911 -8.55078125 6.47265625 C-7.94443848 6.06031738 -7.3380957 5.64797852 -6.71337891 5.22314453 C-4.77090914 3.87507019 -4.77090914 3.87507019 -2.23046875 1.62109375 C-1.49441406 1.08613281 -0.75835937 0.55117188 0 0 Z " fill="#100D07" transform="translate(250,577)"/>
<path d="M0 0 C0.33 1.32 0.66 2.64 1 4 C-2.11930042 6.34103185 -5.2463447 8.6714893 -8.375 11 C-9.26445312 11.66773438 -10.15390625 12.33546875 -11.0703125 13.0234375 C-11.92109375 13.65507813 -12.771875 14.28671875 -13.6484375 14.9375 C-14.43395996 15.52402344 -15.21948242 16.11054687 -16.02880859 16.71484375 C-18 18 -18 18 -20 18 C-19.63234567 15.352817 -19.23326013 14.21747733 -17.25 12.3684082 C-16.5075 11.85109131 -15.765 11.33377441 -15 10.80078125 C-14.195625 10.23166016 -13.39125 9.66253906 -12.5625 9.07617188 C-11.716875 8.49416016 -10.87125 7.91214844 -10 7.3125 C-8.33304953 6.14233126 -6.66636831 4.97177885 -5 3.80078125 C-4.2575 3.28684814 -3.515 2.77291504 -2.75 2.2434082 C-1.06085716 1.1164782 -1.06085716 1.1164782 0 0 Z " fill="#120E07" transform="translate(242,550)"/>
<path d="M0 0 C0.33 1.32 0.66 2.64 1 4 C-5.27 8.62 -11.54 13.24 -18 18 C-18.33 16.68 -18.66 15.36 -19 14 C-16.96022417 12.41418022 -14.91826692 10.83131092 -12.875 9.25 C-12.30523437 8.8065625 -11.73546875 8.363125 -11.1484375 7.90625 C-7.52564368 5.10681841 -3.83812854 2.49653346 0 0 Z " fill="#0F0C06" transform="translate(243,433)"/>
<path d="M0 0 C0.66 0 1.32 0 2 0 C1.45167567 3.68196291 0.22733764 4.98948993 -2.7109375 7.19921875 C-3.46117187 7.76833984 -4.21140625 8.33746094 -4.984375 8.92382812 C-6.16773438 9.7968457 -6.16773438 9.7968457 -7.375 10.6875 C-8.15617188 11.28111328 -8.93734375 11.87472656 -9.7421875 12.48632812 C-15.55680216 16.85226739 -15.55680216 16.85226739 -19 18 C-19 16.68 -19 15.36 -19 14 C-17.36352539 12.3684082 -17.36352539 12.3684082 -15.09765625 10.80078125 C-14.29005859 10.23166016 -13.48246094 9.66253906 -12.65039062 9.07617188 C-11.79638672 8.49416016 -10.94238281 7.91214844 -10.0625 7.3125 C-8.38650835 6.14222835 -6.71071637 4.97167067 -5.03515625 3.80078125 C-4.2862915 3.28684814 -3.53742676 2.77291504 -2.76586914 2.2434082 C-1.06180475 1.11882402 -1.06180475 1.11882402 0 0 Z " fill="#0C0905" transform="translate(244,565)"/>
<path d="M0 0 C-0.54713932 3.69984751 -1.79857519 5.0109944 -4.74609375 7.234375 C-5.87821289 8.09482422 -5.87821289 8.09482422 -7.03320312 8.97265625 C-7.82662109 9.55917969 -8.62003906 10.14570312 -9.4375 10.75 C-10.22705078 11.35199219 -11.01660156 11.95398438 -11.83007812 12.57421875 C-17.71606611 17 -17.71606611 17 -20 17 C-19.78758062 13.60915726 -18.80747135 12.830027 -16.19921875 10.52734375 C-15.03643532 9.65359884 -13.86549809 8.79062131 -12.6875 7.9375 C-12.10548828 7.50373047 -11.52347656 7.06996094 -10.92382812 6.62304688 C-9.28900213 5.40664746 -7.64475476 4.20294029 -6 3 C-5.24332031 2.40316406 -4.48664063 1.80632813 -3.70703125 1.19140625 C-2 0 -2 0 0 0 Z " fill="#0D0A05" transform="translate(242,543)"/>
<path d="M0 0 C0.99 0.33 1.98 0.66 3 1 C-0.88831034 5.10599566 -5.06541496 8.47741289 -9.625 11.8125 C-10.29273438 12.31458984 -10.96046875 12.81667969 -11.6484375 13.33398438 C-12.29296875 13.80771484 -12.9375 14.28144531 -13.6015625 14.76953125 C-14.18244629 15.19854736 -14.76333008 15.62756348 -15.36181641 16.06958008 C-17 17 -17 17 -20 17 C-17.81936907 11.76719724 -13.54792982 9.38838649 -9.0625 6.1875 C-8.23814453 5.57712891 -7.41378906 4.96675781 -6.56445312 4.33789062 C-5.77103516 3.76619141 -4.97761719 3.19449219 -4.16015625 2.60546875 C-3.43449463 2.08106201 -2.70883301 1.55665527 -1.96118164 1.01635742 C-1.3139917 0.68095947 -0.66680176 0.34556152 0 0 Z " fill="#0F0C07" transform="translate(261,503)"/>
<path d="M0 0 C0.66 0.33 1.32 0.66 2 1 C0.89335329 4.31994012 0.25463837 4.83687415 -2.45703125 6.84765625 C-3.15763672 7.37037109 -3.85824219 7.89308594 -4.58007812 8.43164062 C-5.31677734 8.96982422 -6.05347656 9.50800781 -6.8125 10.0625 C-7.53759766 10.60455078 -8.26269531 11.14660156 -9.00976562 11.70507812 C-12.25351839 14.10598936 -15.34036446 16.27253012 -19 18 C-19 16.68 -19 15.36 -19 14 C-17.25585938 12.26074219 -17.25585938 12.26074219 -14.84375 10.546875 C-13.98652344 9.928125 -13.12929687 9.309375 -12.24609375 8.671875 C-11.33988281 8.03765625 -10.43367187 7.4034375 -9.5 6.75 C-8.59378906 6.1003125 -7.68757812 5.450625 -6.75390625 4.78125 C-4.51069648 3.17558406 -2.25948009 1.58264815 0 0 Z " fill="#110E07" transform="translate(248,487)"/>
<path d="M0 0 C0.33 1.32 0.66 2.64 1 4 C-8.9 11.425 -8.9 11.425 -19 19 C-19.33 17.68 -19.66 16.36 -20 15 C-19.14450562 14.37170288 -19.14450562 14.37170288 -18.27172852 13.73071289 C-15.70133567 11.84219142 -13.13190626 9.9523635 -10.5625 8.0625 C-9.66466797 7.40314453 -8.76683594 6.74378906 -7.84179688 6.06445312 C-6.98779297 5.43603516 -6.13378906 4.80761719 -5.25390625 4.16015625 C-4.46314697 3.57886963 -3.6723877 2.99758301 -2.85766602 2.39868164 C-1.08574745 1.13227114 -1.08574745 1.13227114 0 0 Z " fill="#0F0C06" transform="translate(242,450)"/>
<path d="M0 0 C-1.15878854 3.47636563 -2.02150271 4.01915065 -4.9296875 6.1015625 C-5.72503906 6.67390625 -6.52039063 7.24625 -7.33984375 7.8359375 C-8.17644531 8.42632812 -9.01304687 9.01671875 -9.875 9.625 C-11.11830078 10.5221875 -11.11830078 10.5221875 -12.38671875 11.4375 C-18.58041239 15.86013746 -18.58041239 15.86013746 -22 17 C-21.62851049 14.37461734 -21.22251446 13.21334577 -19.28173828 11.35253906 C-18.55196777 10.82885742 -17.82219727 10.30517578 -17.0703125 9.765625 C-16.27496094 9.19199219 -15.47960937 8.61835938 -14.66015625 8.02734375 C-13.82355469 7.44082031 -12.98695313 6.85429687 -12.125 6.25 C-11.29613281 5.64800781 -10.46726563 5.04601562 -9.61328125 4.42578125 C-3.40113024 0 -3.40113024 0 0 0 Z " fill="#100E08" transform="translate(258,499)"/>
<path d="M0 0 C0.33 0.99 0.66 1.98 1 3 C-2.92204961 7.16574978 -7.16876174 10.48411727 -11.8125 13.8125 C-12.50537109 14.31458984 -13.19824219 14.81667969 -13.91210938 15.33398438 C-15.60517691 16.5599988 -17.30218756 17.7805649 -19 19 C-19.33 18.34 -19.66 17.68 -20 17 C-18.80924688 13.42774064 -17.74761883 12.81119505 -14.74609375 10.64453125 C-13.89208984 10.02255859 -13.03808594 9.40058594 -12.15820312 8.75976562 C-11.26037109 8.11716797 -10.36253906 7.47457031 -9.4375 6.8125 C-8.53580078 6.15830078 -7.63410156 5.50410156 -6.70507812 4.83007812 C-4.47474574 3.21338217 -2.23966088 1.60373514 0 0 Z " fill="#110E07" transform="translate(245,423)"/>
<path d="M0 0 C0.66 0.33 1.32 0.66 2 1 C0.80924688 4.57225936 -0.25238117 5.18880495 -3.25390625 7.35546875 C-4.10791016 7.97744141 -4.96191406 8.59941406 -5.84179688 9.24023438 C-6.73962891 9.88283203 -7.63746094 10.52542969 -8.5625 11.1875 C-9.91504883 12.16879883 -9.91504883 12.16879883 -11.29492188 13.16992188 C-13.52525426 14.78661783 -15.76033912 16.39626486 -18 18 C-18.66 17.67 -19.32 17.34 -20 17 C-18.48023088 12.51355829 -14.86564527 10.47824378 -11.125 7.9375 C-9.87740546 7.0719009 -8.63000459 6.20602261 -7.3828125 5.33984375 C-6.79790039 4.93749512 -6.21298828 4.53514648 -5.61035156 4.12060547 C-3.70383041 2.7939026 -1.843522 1.41274927 0 0 Z " fill="#0C0A05" transform="translate(255,582)"/>
<path d="M0 0 C0.66 0 1.32 0 2 0 C1.64087414 2.73669635 1.18747787 3.82447203 -0.85766602 5.73925781 C-1.64842529 6.30483398 -2.43918457 6.87041016 -3.25390625 7.453125 C-4.10791016 8.071875 -4.96191406 8.690625 -5.84179688 9.328125 C-6.73962891 9.96234375 -7.63746094 10.5965625 -8.5625 11.25 C-9.46419922 11.8996875 -10.36589844 12.549375 -11.29492188 13.21875 C-13.52325781 14.82220866 -15.7582612 16.41536079 -18 18 C-18.66 17.67 -19.32 17.34 -20 17 C-20 16.34 -20 15.68 -20 15 C-18.27172852 13.50366211 -18.27172852 13.50366211 -15.87890625 11.77734375 C-15.02619141 11.15666016 -14.17347656 10.53597656 -13.29492188 9.89648438 C-11.94237305 8.92678711 -11.94237305 8.92678711 -10.5625 7.9375 C-8.79258055 6.65548369 -7.02302939 5.37295872 -5.25390625 4.08984375 C-4.46314697 3.52128662 -3.6723877 2.95272949 -2.85766602 2.36694336 C-1.08196687 1.13211632 -1.08196687 1.13211632 0 0 Z " fill="#130F08" transform="translate(247,571)"/>
<path d="M0 0 C0.66 0 1.32 0 2 0 C1.64087414 2.73669635 1.18747787 3.82447203 -0.85766602 5.73925781 C-1.64842529 6.30483398 -2.43918457 6.87041016 -3.25390625 7.453125 C-4.10791016 8.071875 -4.96191406 8.690625 -5.84179688 9.328125 C-6.73962891 9.96234375 -7.63746094 10.5965625 -8.5625 11.25 C-9.46419922 11.8996875 -10.36589844 12.549375 -11.29492188 13.21875 C-13.52325781 14.82220866 -15.7582612 16.41536079 -18 18 C-18.66 17.01 -19.32 16.02 -20 15 C-19.14450562 14.37170288 -19.14450562 14.37170288 -18.27172852 13.73071289 C-15.70133567 11.84219142 -13.13190626 9.9523635 -10.5625 8.0625 C-9.66466797 7.40314453 -8.76683594 6.74378906 -7.84179688 6.06445312 C-6.98779297 5.43603516 -6.13378906 4.80761719 -5.25390625 4.16015625 C-4.46314697 3.57886963 -3.6723877 2.99758301 -2.85766602 2.39868164 C-1.08574745 1.13227114 -1.08574745 1.13227114 0 0 Z " fill="#110E08" transform="translate(251,493)"/>
<path d="M0 0 C1.32 0.66 2.64 1.32 4 2 C0.94814514 4.32682115 -2.11815579 6.63381277 -5.1875 8.9375 C-6.05181641 9.59685547 -6.91613281 10.25621094 -7.80664062 10.93554688 C-8.64775391 11.56396484 -9.48886719 12.19238281 -10.35546875 12.83984375 C-11.51018677 13.71177368 -11.51018677 13.71177368 -12.68823242 14.60131836 C-15.16112157 16.09748289 -17.15436993 16.61045899 -20 17 C-20 16.34 -20 15.68 -20 15 C-17.82300127 13.31506263 -15.64488281 11.73805375 -13.375 10.1875 C-8.72445002 6.9787176 -4.29259052 3.67841987 0 0 Z " fill="#0D0B07" transform="translate(266,590)"/>
<path d="M0 0 C-0.36992649 2.63711389 -0.77606341 3.78725551 -2.73413086 5.64746094 C-3.47026611 6.17114258 -4.20640137 6.69482422 -4.96484375 7.234375 C-5.76470703 7.80800781 -6.56457031 8.38164062 -7.38867188 8.97265625 C-8.22978516 9.55917969 -9.07089844 10.14570313 -9.9375 10.75 C-10.77474609 11.35199219 -11.61199219 11.95398438 -12.47460938 12.57421875 C-18.71184984 17 -18.71184984 17 -21 17 C-21 16.01 -21 15.02 -21 14 C-19.28759766 12.37426758 -19.28759766 12.37426758 -16.9140625 10.64453125 C-16.06585938 10.02255859 -15.21765625 9.40058594 -14.34375 8.75976562 C-13.4465625 8.11716797 -12.549375 7.47457031 -11.625 6.8125 C-10.73554688 6.15830078 -9.84609375 5.50410156 -8.9296875 4.83007812 C-2.28140478 0 -2.28140478 0 0 0 Z " fill="#0F0C06" transform="translate(247,481)"/>
<path d="M0 0 C0.33 0.99 0.66 1.98 1 3 C-4.99435236 8.49625431 -11.36494847 13.30423743 -18 18 C-18.33 16.68 -18.66 15.36 -19 14 C-12.73 9.38 -6.46 4.76 0 0 Z " fill="#0E0B06" transform="translate(242,442)"/>
<path d="M0 0 C1.2065625 0.0309375 1.2065625 0.0309375 2.4375 0.0625 C-1.1907724 3.94522267 -5.28657276 7.10153813 -9.5 10.3125 C-10.20318359 10.86679687 -10.90636719 11.42109375 -11.63085938 11.9921875 C-16.87064673 15.97972952 -16.87064673 15.97972952 -20.56640625 16.421875 C-21.22511719 16.30328125 -21.88382812 16.1846875 -22.5625 16.0625 C-18.80188761 12.07223189 -14.81232069 8.93063301 -10.3125 5.8125 C-2.08638256 0.05088738 -2.08638256 0.05088738 0 0 Z " fill="#0C0B07" transform="translate(321.5625,433.9375)"/>
<path d="M0 0 C0.8971875 0.309375 0.8971875 0.309375 1.8125 0.625 C-1.12367412 2.91836953 -4.06166562 5.20939913 -7 7.5 C-7.83337891 8.15097656 -8.66675781 8.80195312 -9.52539062 9.47265625 C-10.32783203 10.09785156 -11.13027344 10.72304688 -11.95703125 11.3671875 C-12.69542236 11.9432373 -13.43381348 12.51928711 -14.19458008 13.11279297 C-15.81558056 14.34279137 -17.49441798 15.49627865 -19.1875 16.625 C-21.375 16.25 -21.375 16.25 -23.1875 15.625 C-20.25132588 13.33163047 -17.31333438 11.04060087 -14.375 8.75 C-13.54162109 8.09902344 -12.70824219 7.44804688 -11.84960938 6.77734375 C-11.04716797 6.15214844 -10.24472656 5.52695312 -9.41796875 4.8828125 C-8.67957764 4.3067627 -7.94118652 3.73071289 -7.18041992 3.13720703 C-2.48460123 -0.42593164 -2.48460123 -0.42593164 0 0 Z " fill="#0D0C07" transform="translate(329.1875,595.375)"/>
<path d="M0 0 C0.99 0.33 1.98 0.66 3 1 C-0.72923094 4.92736845 -4.66268785 8.16311167 -9.0625 11.3125 C-9.67416016 11.76689453 -10.28582031 12.22128906 -10.91601562 12.68945312 C-14.30703108 15.12731829 -15.70489419 16 -20 16 C-16.3498353 12.1923235 -12.51564577 8.92972976 -8.3125 5.75 C-7.73177734 5.30398438 -7.15105469 4.85796875 -6.55273438 4.3984375 C-2.2864011 1.14320055 -2.2864011 1.14320055 0 0 Z " fill="#0C0A06" transform="translate(260,587)"/>
<path d="M0 0 C-0.35912586 2.73669635 -0.81252213 3.82447203 -2.85766602 5.73925781 C-3.64842529 6.30483398 -4.43918457 6.87041016 -5.25390625 7.453125 C-6.10791016 8.071875 -6.96191406 8.690625 -7.84179688 9.328125 C-8.73962891 9.96234375 -9.63746094 10.5965625 -10.5625 11.25 C-11.46419922 11.8996875 -12.36589844 12.549375 -13.29492188 13.21875 C-15.52325781 14.82220866 -17.7582612 16.41536079 -20 18 C-20.33 16.68 -20.66 15.36 -21 14 C-17.88069958 11.65896815 -14.7536553 9.3285107 -11.625 7 C-10.73554688 6.33226562 -9.84609375 5.66453125 -8.9296875 4.9765625 C-7.65351563 4.02910156 -7.65351563 4.02910156 -6.3515625 3.0625 C-5.56604004 2.47597656 -4.78051758 1.88945313 -3.97119141 1.28515625 C-2 0 -2 0 0 0 Z " fill="#0B0A06" transform="translate(337,522)"/>
<path d="M0 0 C0.66 0.33 1.32 0.66 2 1 C0.84231707 4.47304879 -0.03424086 5.03817523 -2.9296875 7.13671875 C-3.72503906 7.71357422 -4.52039063 8.29042969 -5.33984375 8.88476562 C-6.17644531 9.47966797 -7.01304687 10.07457031 -7.875 10.6875 C-8.70386719 11.29400391 -9.53273438 11.90050781 -10.38671875 12.52539062 C-16.61795205 17 -16.61795205 17 -20 17 C-18.80924688 13.42774064 -17.74761883 12.81119505 -14.74609375 10.64453125 C-13.89208984 10.02255859 -13.03808594 9.40058594 -12.15820312 8.75976562 C-11.26037109 8.11716797 -10.36253906 7.47457031 -9.4375 6.8125 C-8.53580078 6.15830078 -7.63410156 5.50410156 -6.70507812 4.83007812 C-4.47474574 3.21338217 -2.23966088 1.60373514 0 0 Z " fill="#0C0B07" transform="translate(332,516)"/>
<path d="M0 0 C0.33 0.99 0.66 1.98 1 3 C-15.8671024 17 -15.8671024 17 -19 17 C-18.61656198 14.51217375 -18.25921679 13.25742092 -16.44946289 11.46020508 C-15.7971167 10.98478271 -15.14477051 10.50936035 -14.47265625 10.01953125 C-13.76302734 9.49552734 -13.05339844 8.97152344 -12.32226562 8.43164062 C-11.57654297 7.89732422 -10.83082031 7.36300781 -10.0625 6.8125 C-9.32064453 6.26658203 -8.57878906 5.72066406 -7.81445312 5.15820312 C-2.41395548 1.20697774 -2.41395548 1.20697774 0 0 Z " fill="#0F0C06" transform="translate(242,459)"/>
<path d="M0 0 C-3.62594226 3.89977645 -7.7572877 7.00162274 -12 10.1875 C-12.7115625 10.73341797 -13.423125 11.27933594 -14.15625 11.84179688 C-14.8471875 12.36193359 -15.538125 12.88207031 -16.25 13.41796875 C-16.87390625 13.89000732 -17.4978125 14.3620459 -18.140625 14.84838867 C-20.09474948 16.05868347 -21.75420045 16.56928595 -24 17 C-21.51295516 11.80419702 -17.63686885 9.03278654 -13.125 5.6875 C-12.41730469 5.13771484 -11.70960938 4.58792969 -10.98046875 4.02148438 C-4.53546363 -0.809269 -4.53546363 -0.809269 0 0 Z " fill="#0B0B07" transform="translate(314,433)"/>
<path d="M0 0 C-3.76061239 3.99026811 -7.75017931 7.13186699 -12.25 10.25 C-16.30357693 12.9123225 -16.30357693 12.9123225 -20 16 C-21.66617115 16.04063832 -23.33388095 16.042721 -25 16 C-21.3717276 12.11727733 -17.27592724 8.96096187 -13.0625 5.75 C-12.35931641 5.19570313 -11.65613281 4.64140625 -10.93164062 4.0703125 C-4.51494951 -0.81286762 -4.51494951 -0.81286762 0 0 Z " fill="#0B0B07" transform="translate(308,596)"/>
<path d="M0 0 C0.99 0.33 1.98 0.66 3 1 C-0.88831034 5.10599566 -5.06541496 8.47741289 -9.625 11.8125 C-10.29273438 12.31458984 -10.96046875 12.81667969 -11.6484375 13.33398438 C-12.29296875 13.80771484 -12.9375 14.28144531 -13.6015625 14.76953125 C-14.18244629 15.19854736 -14.76333008 15.62756348 -15.36181641 16.06958008 C-17 17 -17 17 -20 17 C-18.3382581 12.0147743 -13.760405 9.77620016 -9.625 6.75 C-8.7484375 6.08742188 -7.871875 5.42484375 -6.96875 4.7421875 C-6.12570312 4.12085938 -5.28265625 3.49953125 -4.4140625 2.859375 C-3.6401416 2.28670898 -2.8662207 1.71404297 -2.06884766 1.12402344 C-1.38612793 0.7530957 -0.7034082 0.38216797 0 0 Z " fill="#11100A" transform="translate(329,435)"/>
<path d="M0 0 C0.33 0.66 0.66 1.32 1 2 C-2.38717183 6.80443583 -6.55460352 9.89879744 -11.25 13.3125 C-11.99507812 13.86228516 -12.74015625 14.41207031 -13.5078125 14.97851562 C-15.33429617 16.32496192 -17.16500133 17.66519468 -19 19 C-19 15.41417381 -17.87939434 14.20061465 -15.57275391 11.56933594 C-12.87584592 8.87828898 -9.82730793 6.76563115 -6.6875 4.625 C-6.04232422 4.17511719 -5.39714844 3.72523438 -4.73242188 3.26171875 C-3.16015853 2.1669576 -1.5808046 1.08239124 0 0 Z " fill="#0F0C06" transform="translate(250,411)"/>
<path d="M0 0 C-3.64668465 3.90309216 -7.76769158 7.08076449 -12 10.3125 C-12.7115625 10.87517578 -13.423125 11.43785156 -14.15625 12.01757812 C-14.8471875 12.54416016 -15.538125 13.07074219 -16.25 13.61328125 C-16.87390625 14.09579346 -17.4978125 14.57830566 -18.140625 15.07543945 C-20 16 -20 16 -22.234375 15.64916992 C-23.10835938 15.32783081 -23.10835938 15.32783081 -24 15 C-20.34927824 11.98010149 -16.67920876 8.98511001 -13 6 C-12.22914063 5.36191406 -11.45828125 4.72382812 -10.6640625 4.06640625 C-9.99117188 3.52886719 -9.31828125 2.99132812 -8.625 2.4375 C-8.03976562 1.96183594 -7.45453125 1.48617187 -6.8515625 0.99609375 C-4.47009474 -0.28507561 -2.66282654 -0.17843683 0 0 Z " fill="#0C0B07" transform="translate(319,596)"/>
<path d="M0 0 C-1.17853759 3.53561276 -2.20479575 4.1780098 -5.1484375 6.35546875 C-5.98890625 6.97744141 -6.829375 7.59941406 -7.6953125 8.24023438 C-8.57960938 8.88283203 -9.46390625 9.52542969 -10.375 10.1875 C-11.68984375 11.16879883 -11.68984375 11.16879883 -13.03125 12.16992188 C-13.87429688 12.78802734 -14.71734375 13.40613281 -15.5859375 14.04296875 C-16.3598584 14.61039795 -17.1337793 15.17782715 -17.93115234 15.76245117 C-20 17 -20 17 -23 17 C-21.82146241 13.46438724 -20.79520425 12.8219902 -17.8515625 10.64453125 C-17.01109375 10.02255859 -16.170625 9.40058594 -15.3046875 8.75976562 C-14.42039062 8.11716797 -13.53609375 7.47457031 -12.625 6.8125 C-11.31015625 5.83120117 -11.31015625 5.83120117 -9.96875 4.83007812 C-9.12570312 4.21197266 -8.28265625 3.59386719 -7.4140625 2.95703125 C-6.6401416 2.38960205 -5.8662207 1.82217285 -5.06884766 1.23754883 C-3 0 -3 0 0 0 Z " fill="#0B0905" transform="translate(277,593)"/>
<path d="M0 0 C0.33 0.99 0.66 1.98 1 3 C-1.26976982 4.79302821 -3.54076244 6.58446793 -5.8125 8.375 C-6.77639648 9.13683594 -6.77639648 9.13683594 -7.75976562 9.9140625 C-8.38173828 10.40390625 -9.00371094 10.89375 -9.64453125 11.3984375 C-10.21534424 11.84880371 -10.78615723 12.29916992 -11.37426758 12.76318359 C-12.87201655 13.90263341 -14.43415344 14.95610229 -16 16 C-14.68 16.66 -13.36 17.32 -12 18 C-13.98 18 -15.96 18 -18 18 C-18.33 16.68 -18.66 15.36 -19 14 C-12.73 9.38 -6.46 4.76 0 0 Z " fill="#080704" transform="translate(336,530)"/>
<path d="M0 0 C-3.6282724 3.88272267 -7.72407276 7.03903813 -11.9375 10.25 C-12.64068359 10.80429687 -13.34386719 11.35859375 -14.06835938 11.9296875 C-19.30814673 15.91722952 -19.30814673 15.91722952 -23.00390625 16.359375 C-23.66261719 16.24078125 -24.32132812 16.1221875 -25 16 C-21.3717276 12.11727733 -17.27592724 8.96096187 -13.0625 5.75 C-12.35931641 5.19570313 -11.65613281 4.64140625 -10.93164062 4.0703125 C-4.51494951 -0.81286762 -4.51494951 -0.81286762 0 0 Z " fill="#0A0905" transform="translate(287,595)"/>
<path d="M0 0 C-3.6570988 3.80804847 -7.49569942 7.10812243 -11.6875 10.3125 C-12.26822266 10.76689453 -12.84894531 11.22128906 -13.44726562 11.68945312 C-17.7534657 15 -17.7534657 15 -20 15 C-20 11 -20 11 -18.70239258 9.53613281 C-18.10579834 9.09624023 -17.5092041 8.65634766 -16.89453125 8.203125 C-16.24033203 7.71972656 -15.58613281 7.23632812 -14.91210938 6.73828125 C-14.21923828 6.24714844 -13.52636719 5.75601563 -12.8125 5.25 C-12.13896484 4.74339844 -11.46542969 4.23679687 -10.77148438 3.71484375 C-4.60272554 -0.75073582 -4.60272554 -0.75073582 0 0 Z " fill="#130E07" transform="translate(242,537)"/>
<path d="M0 0 C0 0.66 0 1.32 0 2 C-1.68066406 3.49633789 -1.68066406 3.49633789 -4.015625 5.22265625 C-4.85480469 5.84333984 -5.69398438 6.46402344 -6.55859375 7.10351562 C-7.89083984 8.07321289 -7.89083984 8.07321289 -9.25 9.0625 C-10.12269531 9.71283203 -10.99539063 10.36316406 -11.89453125 11.03320312 C-19.07010193 16.29711413 -19.07010193 16.29711413 -23 17 C-21.48023088 12.51355829 -17.86564527 10.47824378 -14.125 7.9375 C-12.87740546 7.0719009 -11.63000459 6.20602261 -10.3828125 5.33984375 C-9.7940332 4.93749512 -9.20525391 4.53514648 -8.59863281 4.12060547 C-7.27679068 3.19402401 -6.00207081 2.20062074 -4.7421875 1.19140625 C-3 0 -3 0 0 0 Z " fill="#090905" transform="translate(327,514)"/>
<path d="M0 0 C0.33 1.32 0.66 2.64 1 4 C-1.95661903 6.14820331 -4.91558094 8.29315614 -7.875 10.4375 C-8.71675781 11.04916016 -9.55851562 11.66082031 -10.42578125 12.29101562 C-11.23144531 12.87431641 -12.03710938 13.45761719 -12.8671875 14.05859375 C-13.61081543 14.59798584 -14.35444336 15.13737793 -15.12060547 15.69311523 C-17 17 -17 17 -19 18 C-19 16.68 -19 15.36 -19 14 C-17.25585938 12.26074219 -17.25585938 12.26074219 -14.84375 10.546875 C-13.98652344 9.928125 -13.12929688 9.309375 -12.24609375 8.671875 C-11.33988281 8.03765625 -10.43367188 7.4034375 -9.5 6.75 C-8.59378906 6.1003125 -7.68757813 5.450625 -6.75390625 4.78125 C-4.51069648 3.17558406 -2.25948009 1.58264815 0 0 Z " fill="#0C0B07" transform="translate(332,441)"/>
<path d="M0 0 C-3.23428185 2.54153967 -6.48972298 5.05442188 -9.75 7.5625 C-10.67039062 8.28630859 -11.59078125 9.01011719 -12.5390625 9.75585938 C-13.42851562 10.43583984 -14.31796875 11.11582031 -15.234375 11.81640625 C-16.45979004 12.76688843 -16.45979004 12.76688843 -17.70996094 13.73657227 C-20 15 -20 15 -22.29785156 14.69897461 C-22.85956055 14.46831299 -23.42126953 14.23765137 -24 14 C-21.04385353 11.68469336 -18.08471941 9.37323693 -15.125 7.0625 C-14.28324219 6.40314453 -13.44148438 5.74378906 -12.57421875 5.06445312 C-11.76855469 4.43603516 -10.96289062 3.80761719 -10.1328125 3.16015625 C-9.38918457 2.57886963 -8.64555664 1.99758301 -7.87939453 1.39868164 C-4.78084264 -0.90732041 -3.65496634 -1.0964899 0 0 Z " fill="#0A0906" transform="translate(317,515)"/>
<path d="M0 0 C0.33 0.99 0.66 1.98 1 3 C-3.79992025 6.87534545 -8.60804677 10.74110947 -13.5 14.5 C-14.1290625 14.9846875 -14.758125 15.469375 -15.40625 15.96875 C-17 17 -17 17 -19 17 C-18.63328885 14.33944739 -18.22662518 13.2114291 -16.23413086 11.35253906 C-15.48526611 10.82885742 -14.73640137 10.30517578 -13.96484375 9.765625 C-12.75151367 8.90517578 -12.75151367 8.90517578 -11.51367188 8.02734375 C-10.2384668 7.14755859 -10.2384668 7.14755859 -8.9375 6.25 C-8.08349609 5.64800781 -7.22949219 5.04601562 -6.34960938 4.42578125 C-4.23972686 2.94061255 -2.123247 1.46596854 0 0 Z " fill="#0F0C06" transform="translate(244,474)"/>
<path d="M0 0 C1.91302307 3.26613695 2.35674661 5.99445248 2.625 9.75 C2.69976563 10.73484375 2.77453125 11.7196875 2.8515625 12.734375 C2.92503906 13.85585938 2.92503906 13.85585938 3 15 C1.02 15 -0.96 15 -3 15 C-2.68917128 13.24970238 -2.37626821 11.49977306 -2.0625 9.75 C-1.88847656 8.77546875 -1.71445312 7.8009375 -1.53515625 6.796875 C-1.09620271 4.50278205 -0.59651408 2.25708029 0 0 Z " fill="#FBF9F3" transform="translate(558,540)"/>
<path d="M0 0 C-5.61 4.29 -11.22 8.58 -17 13 C-17 10 -17 10 -15 7.6875 C-5.32052441 -1.3301311 -5.32052441 -1.3301311 0 0 Z " fill="#0B0A06" transform="translate(307,514)"/>
<path d="M0 0 C-0.12109375 1.703125 -0.12109375 1.703125 -1 4 C-2.99515901 5.72894698 -4.91429664 7.24257501 -7.0625 8.75 C-7.91424805 9.36681641 -7.91424805 9.36681641 -8.78320312 9.99609375 C-10.18194657 11.00695036 -11.59009375 12.00477206 -13 13 C-13 10 -13 10 -10.875 7.625 C-2.52380952 0 -2.52380952 0 0 0 Z " fill="#0C0B07" transform="translate(334,449)"/>
<path d="M0 0 C0.66 0.33 1.32 0.66 2 1 C0.90711818 4.27864546 0.33827067 4.78134149 -2.375 6.6875 C-2.98085938 7.12449219 -3.58671875 7.56148438 -4.2109375 8.01171875 C-6 9 -6 9 -9 9 C-7.83709195 5.51127585 -6.86032391 4.90023136 -3.9375 2.8125 C-3.20402344 2.28269531 -2.47054688 1.75289063 -1.71484375 1.20703125 C-1.14894531 0.80871094 -0.58304687 0.41039062 0 0 Z " fill="#0A0906" transform="translate(318,443)"/>
<path d="M0 0 C0.66 0.33 1.32 0.66 2 1 C0.25 4.875 0.25 4.875 -2 6 C-0.68 6.66 0.64 7.32 2 8 C0.02 8 -1.96 8 -4 8 C-4.33 6.68 -4.66 5.36 -5 4 C-3.35 2.68 -1.7 1.36 0 0 Z " fill="#17150D" transform="translate(322,540)"/>
<path d="M0 0 C0.33 1.32 0.66 2.64 1 4 C-1.31 5.65 -3.62 7.3 -6 9 C-6.66 8.67 -7.32 8.34 -8 8 C-5.58443874 4.80800833 -3.31996462 2.25283313 0 0 Z " fill="#0E0B06" transform="translate(242,550)"/>
<path d="M0 0 C-0.36405249 2.70438996 -0.68142682 3.74406383 -2.84765625 5.484375 C-3.57855469 5.90203125 -4.30945313 6.3196875 -5.0625 6.75 C-5.79597656 7.17796875 -6.52945312 7.6059375 -7.28515625 8.046875 C-7.85105469 8.36140625 -8.41695313 8.6759375 -9 9 C-7.26653013 5.24414862 -4.57230154 0 0 0 Z " fill="#12100A" transform="translate(337,522)"/>
<path d="M0 0 C-2.80804268 2.96404505 -5.18315774 5.44499019 -9 7 C-8.6875 4.625 -8.6875 4.625 -8 2 C-4.77208445 -0.1519437 -3.71599191 -0.20086443 0 0 Z " fill="#110D06" transform="translate(231,537)"/>
<path d="M0 0 C1.32 0.33 2.64 0.66 4 1 C-0.455 4.465 -0.455 4.465 -5 8 C-5.33 7.34 -5.66 6.68 -6 6 C-4 4 -2 2 0 0 Z " fill="#0E0D08" transform="translate(297,434)"/>
<path d="M0 0 C0.66 0.33 1.32 0.66 2 1 C0.85900474 4.42298577 -0.00085621 5.14758766 -3 7 C-3.99 7 -4.98 7 -6 7 C-4.60667426 3.63279613 -3.0210714 2.0140476 0 0 Z " fill="#100F0A" transform="translate(310,524)"/>
<path d="M0 0 C0.66 0.33 1.32 0.66 2 1 C0.12050295 4.57104439 -1.17053157 6.54744301 -5 8 C-4.64950425 4.75791433 -4.43778819 3.38472296 -1.9375 1.1875 C-1.298125 0.795625 -0.65875 0.40375 0 0 Z " fill="#1F180C" transform="translate(227,461)"/>
<path d="M0 0 C0.66 0.33 1.32 0.66 2 1 C-0.46153846 5.8 -0.46153846 5.8 -3.1875 6.8125 C-3.785625 6.874375 -4.38375 6.93625 -5 7 C-4.60196439 4.11424181 -4.20990931 3.17810487 -1.9375 1.25 C-1.298125 0.8375 -0.65875 0.425 0 0 Z " fill="#1C150B" transform="translate(227,561)"/>
<path d="M0 0 C1.32 0 2.64 0 4 0 C4 0.66 4 1.32 4 2 C2.25 3.2890625 2.25 3.2890625 0 4.625 C-0.7425 5.07101562 -1.485 5.51703125 -2.25 5.9765625 C-2.8275 6.31429687 -3.405 6.65203125 -4 7 C-2.79618552 4.50638429 -1.54571278 2.31856917 0 0 Z " fill="#14130C" transform="translate(293,595)"/>
<path d="M0 0 C1.11375 0.185625 1.11375 0.185625 2.25 0.375 C-2.89285714 5.94642857 -2.89285714 5.94642857 -6.75 6.375 C-3.42692308 0.46730769 -3.42692308 0.46730769 0 0 Z " fill="#0A0804" transform="translate(239.75,536.625)"/>
<path d="M0 0 C0.66 0.33 1.32 0.66 2 1 C0.12050295 4.57104439 -1.17053157 6.54744301 -5 8 C-4.64950425 4.75791433 -4.43778819 3.38472296 -1.9375 1.1875 C-1.298125 0.795625 -0.65875 0.40375 0 0 Z " fill="#18130A" transform="translate(230,434)"/>
<path d="M0 0 C0.66 0.33 1.32 0.66 2 1 C0.1875 4 0.1875 4 -2 7 C-2.99 7 -3.98 7 -5 7 C-4.60196439 4.11424181 -4.20990931 3.17810487 -1.9375 1.25 C-1.298125 0.8375 -0.65875 0.425 0 0 Z " fill="#1B150B" transform="translate(228,477)"/>
<path d="M0 0 C0.66 0.33 1.32 0.66 2 1 C-0.07143201 5.03384128 -1.96615872 6.92856799 -6 9 C-4.68775452 5.06326356 -3.08089673 2.77280706 0 0 Z " fill="#211A0E" transform="translate(236,421)"/>
<path d="M0 0 C1.2065625 0.0309375 1.2065625 0.0309375 2.4375 0.0625 C-0.05202921 2.72985273 -2.19658134 4.61996343 -5.5625 6.0625 C-3.26136364 0.07954545 -3.26136364 0.07954545 0 0 Z " fill="#1C1B11" transform="translate(311.5625,432.9375)"/>
<path d="M0 0 C0.33 0.66 0.66 1.32 1 2 C-0.32 3.65 -1.64 5.3 -3 7 C-3.99 6.67 -4.98 6.34 -6 6 C-2.25 1.125 -2.25 1.125 0 0 Z " fill="#16120A" transform="translate(250,411)"/>
<path d="M0 0 C1.32 0.33 2.64 0.66 4 1 C1.03 3.475 1.03 3.475 -2 6 C-2 3 -2 3 0 0 Z " fill="#0F0D08" transform="translate(266,507)"/>
<path d="M0 0 C0.66 0.33 1.32 0.66 2 1 C0.7260411 3.03833424 -0.61061923 5.03852126 -2 7 C-2.66 7 -3.32 7 -4 7 C-4 5.68 -4 4.36 -4 3 C-2 1.25 -2 1.25 0 0 Z " fill="#1B150B" transform="translate(229,576)"/>
<path d="M0 0 C1.32 0.33 2.64 0.66 4 1 C1.03 3.475 1.03 3.475 -2 6 C-2 3 -2 3 0 0 Z " fill="#100F0A" transform="translate(293,512)"/>
<path d="M0 0 C1.32 0.33 2.64 0.66 4 1 C1.03 3.475 1.03 3.475 -2 6 C-2 3 -2 3 0 0 Z " fill="#0B0905" transform="translate(350,461)"/>
<path d="M0 0 C0.66 0 1.32 0 2 0 C1.8125 1.8125 1.8125 1.8125 1 4 C-1.5625 5.75 -1.5625 5.75 -4 7 C-2.79618552 4.50638429 -1.54571278 2.31856917 0 0 Z " fill="#1B180F" transform="translate(332,449)"/>
</svg>
